<svg xmlns="http://www.w3.org/2000/svg" viewBox="0 0 251.73 242.88">
  <path fill="transparent" d="M126.09,72.01c-36.82,0-73.64,0-110.45,0c-0.75,0-1.5-0.02-2.25,0.01c-9.21,0.37-15.06,7.91-12.95,16.7 c1.58,6.58,6.63,10.15,14.4,10.15c73.8,0,147.6,0,221.41,0c0.67,0,1.33,0.02,2-0.02c9.72-0.57,15.71-8.77,12.68-17.38 c-2.03-5.79-7.38-9.46-13.88-9.46C200.06,72,163.07,72.01,126.09,72.01z M125.7,242.87c36.65,0,73.3,0,109.95,0 c0.83,0,1.67,0.03,2.5-0.02c11.72-0.61,14.87-10.33,12.96-16.84c-1.75-5.96-7.5-10-14.25-10c-74.14,0-148.27,0-222.41,0 c-0.42,0-0.83-0.01-1.25,0.01c-8.92,0.47-14.56,7.54-12.88,16.14c1.33,6.8,6.48,10.71,14.17,10.72 C51.57,242.88,88.64,242.87,125.7,242.87z M170.73,26.87c22.67,0,45.33,0.02,68-0.01c8.09-0.01,12.98-5.02,13-13.2 c0.03-8.4-4.84-13.64-12.87-13.64c-45.41-0.03-90.83-0.05-136.24,0.09c-2.59,0.01-5.47,0.99-7.69,2.36 c-4.69,2.9-6.31,9.94-4.29,16.21c1.69,5.23,5.96,8.17,12.1,8.18C125.4,26.89,148.06,26.87,170.73,26.87z M170.72,170.87 c22.67,0,45.33,0.02,68-0.01c8.1-0.01,12.99-5.01,13.01-13.19c0.03-8.4-4.84-13.65-12.86-13.65c-45.41-0.03-90.83-0.05-136.24,0.09 c-2.59,0.01-5.47,0.99-7.7,2.36c-4.69,2.89-6.32,9.93-4.3,16.21c1.68,5.23,5.96,8.18,12.09,8.19 C125.39,170.89,148.05,170.87,170.72,170.87z"/>
  <path fill="currentColor" d="M126.09,72.01c36.98,0,73.97,0,110.95,0c6.5,0,11.84,3.67,13.88,9.46c3.02,8.61-2.96,16.81-12.68,17.38 c-0.66,0.04-1.33,0.02-2,0.02c-73.8,0-147.6,0-221.41,0c-7.77,0-12.82-3.57-14.4-10.15c-2.11-8.79,3.74-16.34,12.95-16.7 c0.75-0.03,1.5-0.01,2.25-0.01C52.45,72.01,89.27,72.01,126.09,72.01z"/>
  <path fill="currentColor" d="M125.7,242.87c-37.07,0-74.14,0-111.2,0c-7.69,0-12.84-3.92-14.17-10.72c-1.68-8.6,3.95-15.67,12.88-16.14 c0.42-0.02,0.83-0.01,1.25-0.01c74.14,0,148.27,0,222.41,0c6.75,0,12.5,4.04,14.25,10c1.91,6.51-1.24,16.23-12.96,16.84 c-0.83,0.04-1.67,0.02-2.5,0.02C199.01,242.87,162.36,242.87,125.7,242.87z"/>
  <path fill="currentColor" d="M170.73,26.87c-22.67,0-45.33,0.01-68-0.01c-6.14-0.01-10.41-2.95-12.1-8.18c-2.03-6.27-0.4-13.32,4.29-16.21 c2.22-1.37,5.11-2.35,7.69-2.36c45.41-0.14,90.83-0.11,136.24-0.09c8.03,0,12.9,5.24,12.87,13.64c-0.03,8.18-4.91,13.19-13,13.2 C216.06,26.89,193.39,26.87,170.73,26.87z"/>
  <path fill="currentColor" d="M170.72,170.87c-22.67,0-45.33,0.01-68-0.01c-6.13-0.01-10.41-2.96-12.09-8.19c-2.02-6.28-0.39-13.32,4.3-16.21 c2.23-1.37,5.11-2.35,7.7-2.36c45.41-0.14,90.83-0.11,136.24-0.09c8.02,0,12.89,5.25,12.86,13.65 c-0.03,8.18-4.91,13.18-13.01,13.19C216.05,170.89,193.38,170.87,170.72,170.87z"/>
</svg>
