<?xml version="1.0" encoding="UTF-8" standalone="no"?>
<svg
   xmlns:dc="http://purl.org/dc/elements/1.1/"
   xmlns:cc="http://creativecommons.org/ns#"
   xmlns:rdf="http://www.w3.org/1999/02/22-rdf-syntax-ns#"
   xmlns:svg="http://www.w3.org/2000/svg"
   xmlns="http://www.w3.org/2000/svg"
   xmlns:sodipodi="http://sodipodi.sourceforge.net/DTD/sodipodi-0.dtd"
   xmlns:inkscape="http://www.inkscape.org/namespaces/inkscape"
   version="1.1"
   id="Calque_1"
   x="0px"
   y="0px"
   viewBox="0 0 31.260001 9.0600004"
   xml:space="preserve"
   sodipodi:docname="resize-y.svg"
   width="31.26"
   height="9.0600004"
   inkscape:version="1.0.1 (3bc2e813f5, 2020-09-07, custom)"><metadata
   id="metadata1052"><rdf:RDF><cc:Work
       rdf:about=""><dc:format>image/svg+xml</dc:format><dc:type
         rdf:resource="http://purl.org/dc/dcmitype/StillImage" /></cc:Work></rdf:RDF></metadata><defs
   id="defs1050" /><sodipodi:namedview
   pagecolor="#ffffff"
   bordercolor="#666666"
   borderopacity="1"
   objecttolerance="10"
   gridtolerance="10"
   guidetolerance="10"
   inkscape:pageopacity="0"
   inkscape:pageshadow="2"
   inkscape:window-width="1904"
   inkscape:window-height="1012"
   id="namedview1048"
   showgrid="false"
   inkscape:zoom="33.308878"
   inkscape:cx="15.635"
   inkscape:cy="4.53"
   inkscape:window-x="0"
   inkscape:window-y="0"
   inkscape:window-maximized="1"
   inkscape:current-layer="Calque_1" />
<style
   type="text/css"
   id="style1039">
	.st0{fill:#3240ff;}
	.st1{fill:#FFFFFF;}
</style>
<g
   id="g1045"
   transform="translate(-4.81,-2.49)">
	<path
   class="st0"
   d="m 35.07,7.06 c 0,-2 -1.57,-3.57 -3.49,-3.57 H 9.3 c -1.92,0 -3.49,1.57 -3.49,3.49 v 0.08 c 0,1.92 1.57,3.49 3.49,3.49 h 22.28 c 1.93,0 3.49,-1.57 3.49,-3.49 z"
   id="path1041" />
	<path
   class="st1"
   d="M 31.58,2.49 H 9.3 C 6.82,2.49 4.81,4.5 4.81,6.98 v 0.08 c 0,2.48 2.01,4.49 4.49,4.49 h 22.28 c 2.48,0 4.49,-2.01 4.49,-4.57 0,-2.48 -2.01,-4.49 -4.49,-4.49 z M 9.3,10.55 C 7.38,10.55 5.81,8.98 5.81,7.06 V 6.98 C 5.81,5.06 7.38,3.49 9.3,3.49 h 22.28 c 1.92,0 3.49,1.57 3.49,3.57 0,1.92 -1.57,3.49 -3.49,3.49 z"
   id="path1043" />
</g>
</svg>
