<?xml version="1.0" encoding="UTF-8" standalone="no"?>
<svg
   xmlns="http://www.w3.org/2000/svg"
   version="1.1"
   id="Calque_1"
   x="0px"
   y="0px"
   viewBox="0 0 31.260001 9.0600004"
   width="31.26"
   height="9.0600004">
<g transform="translate(-4.81,-2.49)">
  <path d="m 35.07,7.06 c 0,-2 -1.57,-3.57 -3.49,-3.57 H 9.3 c -1.92,0 -3.49,1.57 -3.49,3.49 v 0.08 c 0,1.92 1.57,3.49 3.49,3.49 h 22.28 c 1.93,0 3.49,-1.57 3.49,-3.49 z" fill="#3240ff" />
  <path d="M 31.58,2.49 H 9.3 C 6.82,2.49 4.81,4.5 4.81,6.98 v 0.08 c 0,2.48 2.01,4.49 4.49,4.49 h 22.28 c 2.48,0 4.49,-2.01 4.49,-4.57 0,-2.48 -2.01,-4.49 -4.49,-4.49 z M 9.3,10.55 C 7.38,10.55 5.81,8.98 5.81,7.06 V 6.98 C 5.81,5.06 7.38,3.49 9.3,3.49 h 22.28 c 1.92,0 3.49,1.57 3.49,3.57 0,1.92 -1.57,3.49 -3.49,3.49 z" fill="#ffffff" />
</g>
</svg>
