<?xml version="1.0" encoding="utf-8"?>
<!-- Generator: Adobe Illustrator 24.3.0, SVG Export Plug-In . SVG Version: 6.00 Build 0)  -->
<svg version="1.1" id="Calque_1" xmlns="http://www.w3.org/2000/svg" xmlns:xlink="http://www.w3.org/1999/xlink" x="0px" y="0px"
	 viewBox="0 0 9.32 31.4" style="enable-background:new 0 0 9.32 31.4;" xml:space="preserve">
<style type="text/css">
	.st0{fill:#3240ff;}
	.st1{fill:#ffffff;}
</style>
<g>
	<path class="st0" d="M4.69,30.83H4.61c-2.19,0-3.99-1.8-3.99-3.99V4.56c0-2.19,1.8-3.99,3.99-3.99h0.08c2.19,0,3.99,1.8,3.99,3.99
		v22.28C8.68,29.03,6.88,30.83,4.69,30.83z"/>
	<path class="st1" d="M4.69,31.33H4.61c-2.48,0-4.49-2.01-4.49-4.49V4.56c0-2.48,2.01-4.49,4.49-4.49c2.56,0,4.57,2.01,4.57,4.49
		v22.28C9.18,29.32,7.17,31.33,4.69,31.33z M4.69,1.07c-2,0-3.57,1.57-3.57,3.49v22.28c0,1.92,1.57,3.49,3.49,3.49h0.08
		c1.92,0,3.49-1.57,3.49-3.49V4.56C8.18,2.64,6.61,1.07,4.69,1.07z"/>
</g>
<path class="st0" d="M1311.32-30.09h-24.21c-1.56,0-2.83-1.28-2.83-2.83v-24.21c0-1.56,1.28-2.83,2.83-2.83h24.21
	c1.56,0,2.83,1.28,2.83,2.83v24.21C1314.15-31.37,1312.87-30.09,1311.32-30.09z"/>
<path class="st0" d="M1279.35-30.09h-24.21c-1.56,0-2.83-1.28-2.83-2.83v-24.21c0-1.56,1.28-2.83,2.83-2.83h24.21
	c1.56,0,2.83,1.28,2.83,2.83v24.21C1282.18-31.37,1280.9-30.09,1279.35-30.09z"/>
<g id="Settings">
	<path class="st1" d="M1307.79-47.61h-1.18c-0.1-0.28-0.21-0.55-0.34-0.81l0.84-0.84c0.74-0.73,0.75-1.93,0.01-2.67l-0.01-0.01
		l-0.95-0.96c-0.35-0.36-0.83-0.56-1.33-0.56h-0.01c-0.5,0-0.99,0.2-1.34,0.56l-0.85,0.85c-0.26-0.12-0.52-0.23-0.78-0.33v-1.23
		c0-1.05-0.85-1.89-1.89-1.89h-1.36c-1.05,0-1.89,0.85-1.89,1.89v1.23c-0.28,0.1-0.55,0.21-0.82,0.34l-0.92-0.92
		c-0.74-0.73-1.93-0.73-2.68,0l-0.96,0.96c-0.74,0.74-0.74,1.94-0.01,2.68c0,0,0,0,0.01,0.01l0.93,0.93
		c-0.12,0.25-0.23,0.51-0.32,0.77h-1.29c-1.05,0-1.89,0.85-1.89,1.89v1.36c0,1.05,0.85,1.89,1.89,1.89h1.29
		c0.09,0.27,0.2,0.53,0.33,0.78l-0.9,0.9c-0.73,0.74-0.73,1.94,0,2.68l0.96,0.95c0.35,0.36,0.83,0.56,1.33,0.56h0.01
		c0.5,0,0.99-0.2,1.34-0.56l0.89-0.89c0.26,0.13,0.53,0.24,0.81,0.34v1.23c0,1.05,0.85,1.89,1.89,1.89h1.36
		c1.05,0,1.89-0.85,1.89-1.89v-1.23c0.26-0.09,0.52-0.2,0.77-0.32l0.83,0.82c0.35,0.36,0.83,0.56,1.33,0.56
		c0.5-0.01,0.98-0.21,1.35-0.56l0.96-0.96c0.36-0.36,0.56-0.84,0.56-1.35c0-0.5-0.2-0.98-0.56-1.33l-0.82-0.81
		c0.13-0.27,0.25-0.54,0.35-0.83h1.18c1.05,0,1.89-0.85,1.89-1.89v-1.36C1309.68-46.76,1308.83-47.61,1307.79-47.61z M1308.16-44.35
		c0,0.21-0.17,0.38-0.38,0.38h-1.73c-0.34,0-0.64,0.23-0.73,0.56c-0.15,0.54-0.36,1.06-0.64,1.54c-0.17,0.3-0.13,0.67,0.12,0.92
		l1.22,1.22c0.07,0.07,0.11,0.16,0.11,0.26s-0.04,0.2-0.11,0.27l-0.96,0.96c-0.07,0.07-0.17,0.11-0.27,0.11l0,0
		c-0.1,0-0.2-0.04-0.27-0.12l-1.23-1.22c-0.24-0.24-0.61-0.29-0.91-0.12c-0.47,0.27-0.97,0.47-1.49,0.61
		c-0.33,0.09-0.56,0.39-0.56,0.73v1.79c0,0.21-0.17,0.38-0.38,0.38h-1.36c-0.21,0-0.38-0.17-0.38-0.38v-1.79
		c0-0.34-0.23-0.64-0.56-0.73c-0.53-0.14-1.04-0.36-1.52-0.64c-0.3-0.17-0.68-0.13-0.92,0.12l-1.29,1.29
		c-0.07,0.07-0.17,0.11-0.27,0.11l0,0c-0.1,0-0.2-0.04-0.26-0.12l-0.96-0.96c-0.15-0.15-0.15-0.39,0-0.54l1.3-1.29
		c0.24-0.24,0.29-0.62,0.12-0.92c-0.27-0.47-0.48-0.97-0.62-1.5c-0.09-0.33-0.39-0.56-0.73-0.56h-1.85c-0.21,0-0.38-0.17-0.38-0.38
		v-1.36c0-0.21,0.17-0.38,0.38-0.38h1.85c0.34,0,0.64-0.23,0.73-0.56c0.14-0.52,0.35-1.02,0.61-1.48c0.17-0.3,0.12-0.67-0.12-0.91
		l-1.33-1.33c-0.15-0.15-0.15-0.39-0.01-0.54c0,0,0,0,0.01-0.01l0.96-0.96c0.15-0.15,0.39-0.15,0.54,0l1.32,1.32
		c0.24,0.24,0.62,0.29,0.92,0.12c0.48-0.28,1-0.5,1.53-0.65c0.33-0.09,0.56-0.39,0.56-0.73v-1.78c0-0.21,0.17-0.38,0.38-0.38h1.36
		c0.21,0,0.38,0.17,0.38,0.38v1.79c0,0.34,0.23,0.64,0.56,0.73c0.52,0.14,1.03,0.35,1.5,0.62c0.3,0.17,0.67,0.12,0.91-0.12
		l1.25-1.25c0.07-0.07,0.17-0.11,0.27-0.11l0,0c0.1,0,0.19,0.04,0.26,0.11l0.96,0.96c0.07,0.07,0.11,0.17,0.11,0.27
		c0,0.1-0.04,0.19-0.11,0.26l-1.24,1.24c-0.24,0.24-0.29,0.61-0.12,0.91c0.28,0.48,0.49,1,0.64,1.54c0.09,0.33,0.39,0.56,0.73,0.56
		h1.73c0.21,0,0.38,0.17,0.38,0.38L1308.16-44.35z M1299.21-48.9c-2.14,0-3.87,1.73-3.87,3.87s1.73,3.87,3.87,3.87
		s3.87-1.73,3.87-3.87l0,0C1303.07-47.16,1301.34-48.89,1299.21-48.9z M1299.21-42.68c-1.3,0-2.35-1.05-2.35-2.35
		s1.05-2.35,2.35-2.35c1.3,0,2.35,1.05,2.35,2.35l0,0C1301.56-43.73,1300.51-42.68,1299.21-42.68z"/>
</g>
<g id="Delete">
	<path class="st1" d="M1276.32-51.1h-4.24v-1.83c0-1.33-1.08-2.47-2.47-2.47l0,0h-4.81c-1.33,0-2.47,1.08-2.47,2.47l0,0v1.83h-4.24
		c-0.38,0-0.63,0.25-0.63,0.63s0.25,0.63,0.63,0.63h1.2v12.71c0,1.33,1.08,2.47,2.47,2.47h10.94c1.33,0,2.47-1.08,2.47-2.47l0,0
		v-12.71h1.2c0.38,0,0.63-0.25,0.63-0.63S1276.7-51.1,1276.32-51.1L1276.32-51.1z M1273.91-37.12c0,0.63-0.51,1.2-1.2,1.2h-10.94
		c-0.63,0-1.2-0.51-1.2-1.2l0,0v-12.71h6.45c0.38,0,0.63-0.25,0.63-0.63s-0.25-0.63-0.63-0.63h-3.42v-1.83c0-0.63,0.51-1.2,1.2-1.2
		h4.87c0.63,0,1.14,0.57,1.14,1.2v2.47c0,0.38,0.25,0.63,0.63,0.63h2.4L1273.91-37.12z"/>
	<path class="st1" d="M1264.8-46.86c-0.38,0-0.63,0.25-0.63,0.63v6.07c0,0.38,0.25,0.63,0.63,0.63s0.63-0.25,0.63-0.63v-6.07
		C1265.44-46.55,1265.12-46.86,1264.8-46.86z M1269.67-46.86c-0.38,0-0.63,0.25-0.63,0.63v6.07c0,0.38,0.25,0.63,0.63,0.63
		s0.63-0.25,0.63-0.63v-6.07C1270.31-46.55,1269.99-46.86,1269.67-46.86z"/>
</g>
</svg>
