<?xml version="1.0" encoding="UTF-8" standalone="no"?>
<svg
   xmlns:dc="http://purl.org/dc/elements/1.1/"
   xmlns:cc="http://creativecommons.org/ns#"
   xmlns:rdf="http://www.w3.org/1999/02/22-rdf-syntax-ns#"
   xmlns:svg="http://www.w3.org/2000/svg"
   xmlns="http://www.w3.org/2000/svg"
   xmlns:sodipodi="http://sodipodi.sourceforge.net/DTD/sodipodi-0.dtd"
   xmlns:inkscape="http://www.inkscape.org/namespaces/inkscape"
   version="1.1"
   id="Calque_1"
   x="0px"
   y="0px"
   viewBox="0 0 16.399999 16.4"
   xml:space="preserve"
   sodipodi:docname="resize.svg"
   width="16.4"
   height="16.4"
   inkscape:version="1.0.1 (3bc2e813f5, 2020-09-07, custom)"><metadata
   id="metadata1068"><rdf:RDF><cc:Work
       rdf:about=""><dc:format>image/svg+xml</dc:format><dc:type
         rdf:resource="http://purl.org/dc/dcmitype/StillImage" /></cc:Work></rdf:RDF></metadata><defs
   id="defs1066" /><sodipodi:namedview
   pagecolor="#ffffff"
   bordercolor="#666666"
   borderopacity="1"
   objecttolerance="10"
   gridtolerance="10"
   guidetolerance="10"
   inkscape:pageopacity="0"
   inkscape:pageshadow="2"
   inkscape:window-width="1904"
   inkscape:window-height="1012"
   id="namedview1064"
   showgrid="false"
   inkscape:zoom="44.450834"
   inkscape:cx="8.75"
   inkscape:cy="11.234612"
   inkscape:window-x="0"
   inkscape:window-y="0"
   inkscape:window-maximized="1"
   inkscape:current-layer="Calque_1" />
<style
   type="text/css"
   id="style1055">
	.st0{fill:#3240ff;}
	.st1{fill:#FFFFFF;}
</style>
<g
   id="g1061"
   transform="translate(-0.56,-0.16)">
	<circle
   class="st0"
   cx="8.7600002"
   cy="8.3699999"
   r="7.1999998"
   id="circle1057" />
	<path
   class="st1"
   d="m 8.76,0.16 c -4.52,0 -8.2,3.68 -8.2,8.2 0,4.52 3.68,8.2 8.2,8.2 4.52,0 8.2,-3.68 8.2,-8.2 0,-4.52 -3.68,-8.2 -8.2,-8.2 z m 0,15.41 c -3.97,0 -7.2,-3.23 -7.2,-7.2 0,-3.97 3.23,-7.2 7.2,-7.2 3.97,0 7.2,3.23 7.2,7.2 0,3.97 -3.23,7.2 -7.2,7.2 z"
   id="path1059" />
</g>
</svg>
