<?xml version="1.0" encoding="UTF-8" standalone="no"?>
<svg
   xmlns="http://www.w3.org/2000/svg"
   version="1.1"
   id="Calque_1"
   x="0px"
   y="0px"
   viewBox="0 0 16.399999 16.4"
   width="16.4"
   height="16.4">
<style
   type="text/css"
   id="style1055">
	.st0{fill:#3240ff;}
	.st1{fill:#FFFFFF;}
</style>
<g
   id="g1061"
   transform="translate(-0.56,-0.16)">
	<circle
   class="st0"
   cx="8.7600002"
   cy="8.3699999"
   r="7.1999998"
   id="circle1057" />
	<path
   class="st1"
   d="m 8.76,0.16 c -4.52,0 -8.2,3.68 -8.2,8.2 0,4.52 3.68,8.2 8.2,8.2 4.52,0 8.2,-3.68 8.2,-8.2 0,-4.52 -3.68,-8.2 -8.2,-8.2 z m 0,15.41 c -3.97,0 -7.2,-3.23 -7.2,-7.2 0,-3.97 3.23,-7.2 7.2,-7.2 3.97,0 7.2,3.23 7.2,7.2 0,3.97 -3.23,7.2 -7.2,7.2 z"
   id="path1059" />
</g>
</svg>
