<?xml version="1.0" encoding="UTF-8" standalone="no"?>
<svg
   xmlns="http://www.w3.org/2000/svg"
   version="1.1"
   x="0px"
   y="0px"
   viewBox="0 0 34.040001 34.04"
   width="34.040001"
   height="34.040001">
<style
   type="text/css"
   id="style1123">
	.st0{fill:#3240ff;}
	.st1{fill:#FFFFFF;}
</style>
<g
   id="g1131"
   transform="translate(-3.97,-3.77)">
	<path
   class="st0"
   d="m 37.01,20.79 c 0,-8.83 -7.19,-16.02 -16.02,-16.02 -8.83,0 -16.02,7.19 -16.02,16.02 0,8.83 7.19,16.02 16.02,16.02 8.83,0 16.02,-7.19 16.02,-16.02 z m -6.08,-5.66 c -0.06,0.18 -0.11,0.37 -0.17,0.55 -0.24,0.79 -0.48,1.58 -0.72,2.37 -0.16,0.5 -0.31,1 -0.46,1.5 -0.08,0.26 -0.3,0.45 -0.55,0.51 -0.06,0.02 -0.13,0.02 -0.19,0.02 -0.07,0 -0.13,-0.01 -0.2,-0.03 -0.19,-0.06 -0.37,-0.11 -0.55,-0.17 -0.8,-0.24 -1.59,-0.48 -2.38,-0.72 -0.5,-0.15 -0.99,-0.3 -1.49,-0.45 -0.4,-0.13 -0.6,-0.54 -0.5,-0.94 0.1,-0.39 0.56,-0.61 0.94,-0.5 0.19,0.06 0.37,0.11 0.55,0.17 0.8,0.24 1.59,0.48 2.38,0.72 0.05,0.01 0.09,0.03 0.14,0.04 -0.21,-0.49 -0.47,-0.96 -0.77,-1.4 -0.38,-0.53 -0.83,-1.01 -1.33,-1.43 -0.51,-0.41 -1.06,-0.75 -1.65,-1.03 -0.59,-0.25 -1.2,-0.44 -1.82,-0.55 -0.63,-0.09 -1.27,-0.11 -1.9,-0.06 -0.66,0.08 -1.3,0.23 -1.92,0.46 -0.56,0.22 -1.09,0.51 -1.59,0.85 -0.53,0.39 -1.02,0.84 -1.44,1.34 -0.4,0.5 -0.74,1.05 -1.01,1.63 -0.25,0.58 -0.44,1.19 -0.55,1.82 -0.1,0.63 -0.11,1.28 -0.06,1.91 0.07,0.65 0.22,1.3 0.45,1.92 0.22,0.56 0.51,1.09 0.85,1.59 0.39,0.53 0.84,1.02 1.34,1.44 0.5,0.4 1.05,0.74 1.63,1.01 0.58,0.25 1.19,0.44 1.82,0.55 0.63,0.09 1.27,0.11 1.9,0.06 0.66,-0.07 1.3,-0.22 1.92,-0.45 0.56,-0.23 1.1,-0.52 1.6,-0.86 0.53,-0.38 1.01,-0.83 1.43,-1.33 0.41,-0.51 0.75,-1.07 1.03,-1.66 0.08,-0.17 0.29,-0.28 0.46,-0.33 0.2,-0.05 0.41,0 0.58,0.1 0.16,0.09 0.29,0.28 0.33,0.46 0.02,0.09 0.03,0.19 0,0.29 -0.01,0.1 -0.04,0.19 -0.1,0.27 -0.16,0.35 -0.35,0.7 -0.56,1.02 -0.94,1.44 -2.31,2.62 -3.9,3.29 -0.44,0.18 -0.9,0.34 -1.36,0.46 -0.44,0.11 -0.89,0.17 -1.34,0.22 -0.8,0.08 -1.6,0.03 -2.39,-0.11 -0.78,-0.13 -1.52,-0.39 -2.24,-0.73 -0.71,-0.33 -1.35,-0.77 -1.94,-1.27 -1.22,-1.03 -2.1,-2.4 -2.61,-3.9 -0.52,-1.54 -0.58,-3.22 -0.21,-4.8 0.36,-1.53 1.15,-2.93 2.22,-4.07 1.09,-1.16 2.52,-1.99 4.05,-2.41 1.56,-0.43 3.23,-0.41 4.78,0.04 1.5,0.44 2.87,1.29 3.95,2.42 0.56,0.59 1.04,1.26 1.42,1.99 0.08,-0.25 0.15,-0.51 0.23,-0.76 0.16,-0.5 0.31,-1 0.46,-1.5 0.12,-0.4 0.54,-0.6 0.94,-0.5 0.39,0.1 0.61,0.56 0.5,0.94 z"
   id="path1125" />
	<path
   class="st1"
   d="m 20.99,3.77 c -9.38,0 -17.02,7.64 -17.02,17.02 0,9.38 7.64,17.02 17.02,17.02 9.38,0 17.02,-7.64 17.02,-17.02 0,-9.38 -7.64,-17.02 -17.02,-17.02 z M 4.97,20.79 c 0,-8.83 7.19,-16.02 16.02,-16.02 8.83,0 16.02,7.19 16.02,16.02 0,8.83 -7.19,16.02 -16.02,16.02 -8.83,0 -16.02,-7.19 -16.02,-16.02 z"
   id="path1127" />
	<path
   class="st1"
   d="m 30.43,14.19 c -0.4,-0.1 -0.82,0.1 -0.94,0.5 -0.15,0.5 -0.3,1 -0.46,1.5 -0.08,0.25 -0.15,0.51 -0.23,0.76 -0.38,-0.73 -0.86,-1.4 -1.42,-1.99 -1.08,-1.13 -2.45,-1.98 -3.95,-2.42 -1.55,-0.45 -3.22,-0.47 -4.78,-0.04 -1.53,0.42 -2.96,1.25 -4.05,2.41 -1.07,1.14 -1.86,2.54 -2.22,4.07 -0.37,1.58 -0.31,3.26 0.21,4.8 0.51,1.5 1.39,2.87 2.61,3.9 0.59,0.5 1.23,0.94 1.94,1.27 0.72,0.34 1.46,0.6 2.24,0.73 0.79,0.14 1.59,0.19 2.39,0.11 0.45,-0.05 0.9,-0.11 1.34,-0.22 0.46,-0.12 0.92,-0.28 1.36,-0.46 1.59,-0.67 2.96,-1.85 3.9,-3.29 0.21,-0.32 0.4,-0.67 0.56,-1.02 0.06,-0.08 0.09,-0.17 0.1,-0.27 0.03,-0.1 0.02,-0.2 0,-0.29 -0.04,-0.18 -0.17,-0.37 -0.33,-0.46 -0.17,-0.1 -0.38,-0.15 -0.58,-0.1 -0.17,0.05 -0.38,0.16 -0.46,0.33 -0.28,0.59 -0.62,1.15 -1.03,1.66 -0.42,0.5 -0.9,0.95 -1.43,1.33 -0.5,0.34 -1.04,0.63 -1.6,0.86 -0.62,0.23 -1.26,0.38 -1.92,0.45 -0.63,0.05 -1.27,0.03 -1.9,-0.06 -0.63,-0.11 -1.24,-0.3 -1.82,-0.55 -0.58,-0.27 -1.13,-0.61 -1.63,-1.01 -0.5,-0.42 -0.95,-0.91 -1.34,-1.44 -0.34,-0.5 -0.63,-1.03 -0.85,-1.59 -0.23,-0.62 -0.38,-1.27 -0.45,-1.92 -0.05,-0.63 -0.04,-1.28 0.06,-1.91 0.11,-0.63 0.3,-1.24 0.55,-1.82 0.27,-0.58 0.61,-1.13 1.01,-1.63 0.42,-0.5 0.91,-0.95 1.44,-1.34 0.5,-0.34 1.03,-0.63 1.59,-0.85 0.62,-0.23 1.26,-0.38 1.92,-0.46 0.63,-0.05 1.27,-0.03 1.9,0.06 0.62,0.11 1.23,0.3 1.82,0.55 0.59,0.28 1.14,0.62 1.65,1.03 0.5,0.42 0.95,0.9 1.33,1.43 0.3,0.44 0.56,0.91 0.77,1.4 -0.05,-0.01 -0.09,-0.03 -0.14,-0.04 -0.79,-0.24 -1.58,-0.48 -2.38,-0.72 -0.18,-0.06 -0.36,-0.11 -0.55,-0.17 -0.38,-0.11 -0.84,0.11 -0.94,0.5 -0.1,0.4 0.1,0.81 0.5,0.94 0.5,0.15 0.99,0.3 1.49,0.45 0.79,0.24 1.58,0.48 2.38,0.72 0.18,0.06 0.36,0.11 0.55,0.17 0.07,0.02 0.13,0.03 0.2,0.03 0.06,0 0.13,0 0.19,-0.02 0.25,-0.06 0.47,-0.25 0.55,-0.51 0.15,-0.5 0.3,-1 0.46,-1.5 0.24,-0.79 0.48,-1.58 0.72,-2.37 0.06,-0.18 0.11,-0.37 0.17,-0.55 0.11,-0.38 -0.11,-0.84 -0.5,-0.94 z"
   id="path1129" />
</g>
</svg>
