<svg xmlns="http://www.w3.org/2000/svg" viewBox="0 0 158.01 184.62">
  <path fill="transparent" d="M19.74,158.56c-2.9,0-5.57-0.22-8.19,0.04c-8.82,0.86-13.48,8.99-10.77,17.39c1.9,5.89,6.44,8.6,13.71,8.61 c30,0.02,60,0.03,90-0.01c7.49-0.01,14.94-1.03,21.65-4.31c18.52-9.05,30-23.44,31.67-44.51c1.55-19.59-6.27-34.95-21.87-46.57 c-1.18-0.88-2.39-1.73-3.68-2.67c0.45-0.64,0.75-1.13,1.11-1.57c8.82-10.69,12.37-23.01,11.28-36.72 c-0.63-7.9-2.65-15.51-6.98-22.18C126.68,9.14,111.22-0.01,90.74,0c-25.33,0.01-50.67-0.01-76,0.02c-1.57,0-3.17,0.14-4.71,0.44 C3.77,1.68-0.47,7.35,0.04,13.72C0.61,20.93,5,25.57,11.75,25.96c2.63,0.15,5.28,0.02,7.99,0.02 C19.74,70.32,19.74,114.13,19.74,158.56z"/>
  <path fill="currentColor" d="M19.74,158.56c0-44.42,0-88.24,0-132.58c-2.71,0-5.36,0.13-7.99-0.02C5,25.57,0.61,20.93,0.04,13.72 C-0.47,7.35,3.77,1.68,10.03,0.46c1.54-0.3,3.14-0.44,4.71-0.44c25.33-0.03,50.67-0.01,76-0.02c20.48-0.01,35.94,9.14,46.93,26.06 c4.33,6.67,6.35,14.28,6.98,22.18c1.09,13.7-2.46,26.03-11.28,36.72c-0.36,0.44-0.66,0.92-1.11,1.57c1.29,0.93,2.5,1.79,3.68,2.67 c15.6,11.62,23.42,26.99,21.87,46.57c-1.67,21.07-13.15,35.46-31.67,44.51c-6.72,3.28-14.17,4.3-21.65,4.31 c-30,0.04-60,0.03-90,0.01c-7.27-0.01-11.81-2.72-13.71-8.61c-2.71-8.4,1.95-16.53,10.77-17.39 C14.17,158.34,16.84,158.56,19.74,158.56z M46.2,158.38c1.27,0,2.26,0,3.24,0c14.15,0,28.31,0.03,42.46-0.01 c5.32-0.01,10.66,0.04,15.97-0.32c14.16-0.94,25.9-15.79,23.74-29.79c-2.07-13.4-13.12-22.79-27.04-22.82 c-18.65-0.05-37.3-0.01-55.95-0.01c-0.79,0-1.59,0-2.42,0C46.2,123.21,46.2,140.59,46.2,158.38z M46.22,79.04 c0.75,0.05,1.24,0.12,1.73,0.12c14.57,0.01,29.15,0.12,43.72-0.08c3.34-0.05,6.82-0.75,9.96-1.92 c14.35-5.32,21.49-22.26,14.04-36.4c-5.32-10.09-14.15-14.46-25.17-14.61c-13.9-0.19-27.81-0.05-41.72-0.04 c-0.81,0-1.63,0.07-2.56,0.12C46.22,43.9,46.22,61.35,46.22,79.04z"/>
</svg>
