<svg xmlns="http://www.w3.org/2000/svg" viewBox="0 0 215.54 251.87">
  <path fill="transparent" d="M135.93,26.87c-0.41,1.08-0.67,1.85-0.98,2.6c-5.54,13.28-11.07,26.56-16.62,39.84 c-21.32,51.04-42.65,102.07-63.9,153.14c-0.85,2.05-1.87,2.63-4.01,2.61c-11.75-0.11-23.5-0.11-35.25-0.01 c-2.21,0.02-4.5,0.4-6.61,1.05c-5.68,1.75-9.44,8.18-8.38,13.98c1.41,7.78,6.43,11.78,14.87,11.79 c37.83,0.01,75.66,0.01,113.49-0.02c1.57,0,3.17-0.19,4.69-0.55c6.12-1.41,10.18-6.02,10.35-12.43c0.12-4.56-1.73-10.09-7.63-12.36 c-2.35-0.91-5-1.41-7.52-1.43c-14.75-0.13-29.5-0.06-44.25-0.07c-0.86,0-1.72-0.07-2.79-0.12c0.31-0.84,0.49-1.39,0.71-1.92 c26.98-64.63,53.97-129.25,80.9-193.9c0.74-1.78,1.66-2.26,3.49-2.24c11.25,0.08,22.5,0.06,33.75,0.02 c1.65-0.01,3.34-0.17,4.94-0.54c7.17-1.64,11.41-8.04,10.11-15.11c-1.33-7.27-6.51-11.18-14.84-11.19 C162.72,0,124.97-0.01,87.23,0.05c-2.21,0-4.49,0.4-6.61,1.04c-5.71,1.74-9.5,8.15-8.45,13.94c1.4,7.73,6.38,11.82,14.57,11.83 c15.42,0.03,30.83,0.01,46.25,0.01C133.87,26.87,134.76,26.87,135.93,26.87z"/>
  <path fill="currentColor" d="M135.93,26.87c-1.17,0-2.06,0-2.94,0c-15.42,0-30.83,0.02-46.25-0.01c-8.19-0.02-13.18-4.11-14.57-11.83 c-1.05-5.78,2.74-12.2,8.45-13.94c2.12-0.64,4.4-1.04,6.61-1.04C124.97-0.01,162.72,0,200.47,0.01c8.33,0,13.51,3.92,14.84,11.19 c1.3,7.07-2.94,13.47-10.11,15.11c-1.61,0.37-3.29,0.53-4.94,0.54c-11.25,0.05-22.5,0.07-33.75-0.02 c-1.83-0.01-2.75,0.46-3.49,2.24c-26.93,64.65-53.92,129.27-80.9,193.9c-0.22,0.53-0.4,1.07-0.71,1.92 c1.07,0.05,1.93,0.12,2.79,0.12c14.75,0.01,29.5-0.06,44.25,0.07c2.52,0.02,5.17,0.53,7.52,1.43c5.89,2.27,7.75,7.81,7.63,12.36 c-0.17,6.41-4.23,11.02-10.35,12.43c-1.53,0.35-3.13,0.54-4.69,0.55c-37.83,0.03-75.66,0.03-113.49,0.02 c-8.44,0-13.46-4.01-14.87-11.79c-1.05-5.79,2.7-12.22,8.38-13.98c2.12-0.65,4.4-1.03,6.61-1.05c11.75-0.1,23.5-0.11,35.25,0.01 c2.14,0.02,3.16-0.56,4.01-2.61c21.25-51.07,42.58-102.1,63.9-153.14c5.55-13.28,11.08-26.56,16.62-39.84 C135.26,28.72,135.52,27.95,135.93,26.87z"/>
</svg>
