<?xml version="1.0" encoding="utf-8"?>
<!-- Generator: Adobe Illustrator 24.3.0, SVG Export Plug-In . SVG Version: 6.00 Build 0)  -->
<svg version="1.1" id="Calque_1" xmlns="http://www.w3.org/2000/svg" xmlns:xlink="http://www.w3.org/1999/xlink" x="0px" y="0px"
	 viewBox="0 0 237.2 210.73" style="enable-background:new 0 0 237.2 210.73;" xml:space="preserve">
<style type="text/css">
	.st0{fill:#FFFFFF;}
</style>
<g>
	<path class="st0" d="M187.71,197.85c-0.93-0.04-1.82-0.22-2.68-0.5C185.89,197.63,186.79,197.81,187.71,197.85
		c5.02,0.21,9.21-3.48,9.98-8.61C196.92,194.36,192.73,198.06,187.71,197.85z"/>
	<path class="st0" d="M209.09,196.65c0.41-1.1,0.75-2.24,1.02-3.44C209.85,194.41,209.5,195.56,209.09,196.65z"/>
	<path class="st0" d="M184.36,197.1c-0.85-0.35-1.65-0.8-2.37-1.35C182.71,196.3,183.51,196.75,184.36,197.1z"/>
	<path class="st0" d="M210.29,192.41c0.29-1.47,0.48-3,0.55-4.61c-0.24-5.17-1.68-9.67-4.08-13.27c2.4,3.6,3.84,8.1,4.08,13.27
		C210.77,189.41,210.57,190.94,210.29,192.41z"/>
	<path class="st0" d="M187.73,165.14c-2.58,0.03-5,0.38-7.21,1.01C182.73,165.52,185.15,165.17,187.73,165.14L187.73,165.14z"/>
	<path class="st0" d="M172.77,170.12c1.09-0.89,2.29-1.67,3.59-2.34C175.06,168.45,173.86,169.23,172.77,170.12z"/>
	<path class="st0" d="M172.77,170.12c-4.92,4-7.74,10.2-7.71,17.76c0,0.88,0.04,1.74,0.12,2.58c-0.07-0.84-0.11-1.7-0.12-2.58
		C165.03,180.32,167.85,174.13,172.77,170.12z"/>
	<path class="st0" d="M176.36,167.79c1.29-0.66,2.68-1.21,4.16-1.63C179.04,166.58,177.65,167.12,176.36,167.79z"/>
	<path d="M223.42,26.31c-6.08-0.09-12.17-0.02-18.25-0.02c-52.83,0-105.66-0.01-158.48,0.05c-2.26,0-3.15-0.6-3.54-2.89
		c-0.96-5.58-2.27-11.09-3.42-16.63c-1.03-4.99-3.13-6.76-8.26-6.8c-4.67-0.03-9.33-0.02-14,0c-3.91,0.01-7.84-0.1-11.74,0.14
		c-4.21,0.27-6.5,3.68-5.5,7.72c0.88,3.53,2.9,5.01,7.23,5.06c5.75,0.06,11.5,0.12,17.25-0.04c2.15-0.06,2.97,0.61,3.45,2.74
		c10.17,45.08,20.42,90.13,30.65,135.19c1.26,5.56,3.35,7.29,8.97,7.29c44.91,0,89.82,0,134.74,0c1,0,2.01,0.02,2.99-0.14
		c3.24-0.51,5.27-2.95,5.31-6.26c0.04-3.42-2.03-5.96-5.37-6.45c-1.15-0.17-2.33-0.13-3.49-0.13c-42.41-0.01-84.82,0-127.24-0.01
		c-0.75,0-1.56,0.17-2.23-0.06c-0.65-0.22-1.52-0.76-1.66-1.32c-0.96-3.85-1.75-7.74-2.68-12.02c1.34,0,2.39,0,3.44,0
		c40.58,0,81.16,0,121.74,0c1.25,0,2.5-0.02,3.75-0.1c9.43-0.63,15.99-5.89,18.66-15.02c1.62-5.51,3.17-11.04,4.74-16.57
		c5.34-18.72,10.69-37.44,16.02-56.17C239.27,34.15,233.57,26.46,223.42,26.31z M217.18,63.93c-4.61,16.17-9.22,32.34-13.84,48.5
		c-1.22,4.26-3.72,6.24-8.16,6.24c-42.74,0.02-85.48,0-128.22,0.05c-1.77,0-2.22-0.76-2.55-2.23c-4.87-21.91-9.79-43.81-14.69-65.71
		c-0.83-3.71-1.63-7.42-2.57-11.7c59.13,0,117.98,0,177.08,0C221.89,47.29,219.55,55.61,217.18,63.93z"/>
	<path d="M210.29,192.41c0.29-1.47,0.48-3,0.55-4.61c-0.24-5.17-1.68-9.67-4.08-13.27s-5.78-6.3-9.89-7.86
		c-2.74-1.04-5.81-1.57-9.14-1.53l0,0c-2.58,0.03-5,0.38-7.21,1.01c-1.48,0.42-2.87,0.97-4.16,1.63s-2.49,1.45-3.59,2.34
		c-4.92,4-7.74,10.2-7.71,17.76c0,0.88,0.04,1.74,0.12,2.58c0.15,1.67,0.44,3.26,0.86,4.76c2.72,9.71,10.91,15.49,21.9,15.51
		c5.07,0.01,9.47-1.27,13.02-3.6c1.19-0.78,2.28-1.67,3.27-2.67c2.11-2.13,3.74-4.77,4.88-7.8c0.41-1.1,0.75-2.24,1.02-3.44
		C210.18,192.95,210.23,192.68,210.29,192.41z M187.71,197.85c-0.93-0.04-1.82-0.22-2.68-0.5c-0.23-0.07-0.45-0.16-0.67-0.25
		c-0.85-0.35-1.65-0.8-2.37-1.35c-0.73-0.55-1.39-1.2-1.94-1.91c-0.79-1.02-1.39-2.18-1.72-3.43c-0.25-0.93-0.36-1.91-0.3-2.9
		c0.35-5.51,4.89-9.72,10.24-9.5c5.52,0.23,9.83,4.84,9.53,10.18c-0.02,0.35-0.06,0.7-0.11,1.04
		C196.92,194.36,192.73,198.06,187.71,197.85z"/>
	<path d="M75.79,165.05c-13.39,0.23-22.94,9.47-22.89,22.86c0.06,13.76,9.73,22.93,22.92,22.82c13.78-0.11,22.78-9.53,22.73-22.98
		C98.5,174.34,89.23,165.4,75.79,165.05z M75.8,197.85c-5.37,0.03-10.4-4.76-10-10.03c0.43-5.75,3.9-9.79,9.96-9.73
		c6.35,0.06,9.47,4.18,9.89,9.81C86.02,193.07,81.01,197.82,75.8,197.85z"/>
	<path class="st0" d="M178.03,187.51c-0.06,0.99,0.04,1.97,0.3,2.9c0.34,1.24,0.93,2.41,1.72,3.43c0.56,0.72,1.21,1.36,1.94,1.91
		c0.72,0.55,1.52,1,2.37,1.35c0.22,0.09,0.45,0.17,0.67,0.25c0.85,0.28,1.75,0.46,2.68,0.5c5.02,0.21,9.21-3.48,9.98-8.61
		c0.05-0.34,0.09-0.69,0.11-1.04"/>
</g>
</svg>
