<svg xmlns="http://www.w3.org/2000/svg" viewBox="0 0 171.47 210.96">
  <path fill="transparent" d="M13.08,52.53c0,1.4,0,2.47,0,3.54c0,42.16-0.01,84.31,0.01,126.47c0,4.62,0.77,9.14,2.85,13.3 c5.15,10.33,13.87,15,25.08,15.04c29.83,0.12,59.65,0.08,89.48,0.01c6.2-0.01,12.08-1.5,17.06-5.42 c7.38-5.81,10.61-13.53,10.6-22.89c-0.07-42.16-0.03-84.31-0.03-126.47c0-1.13,0-2.27,0-3.59c2.3,0,4.21,0.05,6.12-0.01 c4.52-0.14,6.89-2.43,7.18-6.94c0.09-1.41,0.02-2.83,0.02-4.25c-0.01-6.16-2.12-8.32-8.2-8.33c-7.25-0.02-14.5-0.16-21.74,0.07 c-2.86,0.09-4.47-0.76-5.88-3.28c-3.6-6.47-7.45-12.81-11.32-19.13c-4.17-6.8-10.15-10.65-18.3-10.67 C92.41-0.02,78.83-0.03,65.25,0.01c-8.13,0.02-14.1,3.82-18.22,10.73c-3.97,6.65-8.03,13.24-11.92,19.93 c-1,1.71-2.09,2.41-4.12,2.38c-7.83-0.13-15.66-0.09-23.49-0.03c-5.31,0.04-7.43,2.22-7.48,7.46c-0.01,1.67-0.04,3.33,0.01,5 c0.12,4.56,2.39,6.88,6.97,7.06C8.9,52.59,10.8,52.53,13.08,52.53z"/>
  <path fill="currentColor" d="M13.08,52.53c-2.27,0-4.18,0.06-6.08-0.01c-4.57-0.18-6.84-2.49-6.97-7.06c-0.04-1.67-0.02-3.33-0.01-5 c0.05-5.23,2.17-7.42,7.48-7.46c7.83-0.06,15.66-0.09,23.49,0.03c2.03,0.03,3.13-0.67,4.12-2.38c3.9-6.69,7.96-13.28,11.92-19.93 C51.16,3.82,57.12,0.03,65.25,0.01C78.83-0.03,92.41-0.02,105.99,0c8.15,0.01,14.13,3.86,18.3,10.67 c3.87,6.32,7.72,12.65,11.32,19.13c1.4,2.52,3.01,3.37,5.88,3.28c7.24-0.23,14.49-0.09,21.74-0.07c6.09,0.02,8.2,2.18,8.2,8.33 c0,1.42,0.07,2.84-0.02,4.25c-0.29,4.51-2.66,6.8-7.18,6.94c-1.91,0.06-3.82,0.01-6.12,0.01c0,1.32,0,2.45,0,3.59 c0,42.16-0.04,84.31,0.03,126.47c0.01,9.35-3.21,17.07-10.6,22.89c-4.98,3.92-10.86,5.41-17.06,5.42 c-29.83,0.07-59.65,0.11-89.48-0.01c-11.21-0.04-19.93-4.71-25.08-15.04c-2.08-4.17-2.85-8.68-2.85-13.3 c-0.02-42.16-0.01-84.31-0.01-126.47C13.08,55.01,13.08,53.94,13.08,52.53z M32.96,52.62c-0.05,0.97-0.12,1.7-0.12,2.44 c-0.01,42.67-0.01,85.33,0,128c0,6.12,2.13,8.22,8.32,8.22c29.67,0.01,59.33,0.01,89,0c6.17,0,8.41-2.27,8.41-8.46 c0-42.5,0-85,0-127.5c0-0.88,0-1.75,0-2.69C103.21,52.62,68.23,52.62,32.96,52.62z M56.69,32.82c19.44,0,38.44,0,57.95,0 c-2.72-4.34-5.17-8.37-7.79-12.28c-0.4-0.6-1.58-0.95-2.4-0.95c-12.49-0.06-24.99-0.08-37.48,0.02c-0.98,0.01-2.33,0.68-2.87,1.47 C61.58,24.79,59.29,28.65,56.69,32.82z"/>
  <path fill="currentColor" d="M59.4,121.85c0-13.83,0.01-27.66,0-41.49c0-2.77,0.37-5.35,3.09-6.89c3.26-1.86,8.97-0.85,9.66,4.32 c0.11,0.82,0.29,1.64,0.29,2.47c0.02,27.75,0.02,55.49,0.01,83.24c0,2.7-0.61,5.22-3.27,6.52c-2.47,1.21-5.2,1.34-7.25-0.56 c-1.25-1.17-2.16-3.14-2.4-4.87c-0.39-2.86-0.12-5.82-0.12-8.73C59.4,144.52,59.4,133.19,59.4,121.85z"/>
  <path fill="currentColor" d="M99.02,121.8c0-13.99-0.03-27.98,0.01-41.97c0.02-5.58,4.01-8.68,8.83-6.68c1.43,0.59,2.66,2.14,3.48,3.55 c0.62,1.05,0.58,2.58,0.58,3.89c0.03,27.57,0.03,55.13,0.02,82.7c0,5.62-2.99,8.31-8.07,7.3c-2.53-0.5-4.18-2-4.65-4.57 c-0.21-1.13-0.19-2.32-0.19-3.48C99.01,148.95,99.02,135.37,99.02,121.8z"/>
</svg>
