<svg xmlns="http://www.w3.org/2000/svg" viewBox="0 0 230.56 48.02">
  <g>
    <path fill="#ff003d" d="M206.93,47.29c-13.04,0.01-23.66-10.59-23.67-23.63S193.86,0.01,206.9,0c13.04-0.01,23.65,10.59,23.66,23.63 S219.97,47.28,206.93,47.29z"/>
    <g>
      <path d="M4.43,26.02l0.01,11.94l-4.44,0l-0.02-29.4l5.03,0c2.46,0,4.32,0.17,5.58,0.51c1.27,0.34,2.39,0.99,3.35,1.94 c1.69,1.65,2.54,3.73,2.54,6.24c0,2.69-0.9,4.83-2.7,6.4c-1.8,1.58-4.23,2.36-7.29,2.37L4.43,26.02z M4.43,21.9l1.66,0 c4.08,0,6.11-1.57,6.11-4.71c0-3.03-2.1-4.55-6.31-4.55l-1.47,0L4.43,21.9z"/>
      <path d="M19.19,11.68c0-0.75,0.27-1.4,0.82-1.94c0.55-0.55,1.2-0.82,1.96-0.82c0.77,0,1.43,0.27,1.98,0.82 c0.55,0.53,0.82,1.19,0.82,1.96s-0.27,1.43-0.82,1.98c-0.53,0.55-1.19,0.82-1.96,0.82c-0.77,0-1.43-0.27-1.98-0.82 S19.19,12.47,19.19,11.68z M24.12,19.39l0.01,18.55l-4.28,0L19.84,19.4L24.12,19.39z"/>
      <path d="M43.6,20.18l0,5.69c-0.98-1.19-1.86-2.01-2.63-2.45c-0.76-0.46-1.66-0.68-2.69-0.68c-1.61,0-2.95,0.57-4.02,1.7 s-1.6,2.55-1.6,4.25c0,1.74,0.52,3.17,1.55,4.28c1.04,1.12,2.37,1.67,3.98,1.67c1.03,0,1.94-0.22,2.72-0.67 c0.76-0.43,1.66-1.27,2.68-2.52l0,5.66c-1.74,0.9-3.48,1.35-5.22,1.36c-2.87,0-5.27-0.92-7.2-2.77c-1.93-1.86-2.9-4.18-2.9-6.95 c0-2.77,0.97-5.1,2.93-7.01s4.35-2.86,7.2-2.86C40.24,18.87,41.97,19.3,43.6,20.18z"/>
      <path d="M51.78,23.37l0.01,14.55l-4.28,0L47.5,23.38l-1.83,0l0-4l1.83,0l-0.01-6.8l4.28,0l0.01,6.8l3.33,0l0,4L51.78,23.37z"/>
      <path d="M57.03,28.51c0-2.68,0.95-4.96,2.87-6.84c1.92-1.88,4.25-2.82,7.01-2.82c2.77,0,5.12,0.94,7.05,2.83 c1.91,1.89,2.86,4.21,2.86,6.97c0,2.78-0.95,5.11-2.87,6.99c-1.93,1.87-4.3,2.8-7.1,2.8c-2.78,0-5.11-0.95-6.99-2.85 C57.98,33.71,57.03,31.35,57.03,28.51z M61.41,28.58c0,1.85,0.5,3.32,1.49,4.4c1.02,1.09,2.36,1.64,4.02,1.63 c1.68,0,3.01-0.54,4.02-1.62c1-1.08,1.5-2.52,1.5-4.32c0-1.8-0.5-3.24-1.51-4.32c-1.02-1.09-2.36-1.64-4.02-1.63 c-1.64,0-2.96,0.55-3.98,1.64C61.92,25.45,61.41,26.86,61.41,28.58z"/>
      <path d="M98.39,12.84l-3.6,2.14c-0.67-1.17-1.32-1.93-1.93-2.28c-0.64-0.41-1.45-0.61-2.46-0.61c-1.23,0-2.25,0.35-3.07,1.05 c-0.81,0.69-1.22,1.55-1.22,2.59c0,1.43,1.07,2.59,3.2,3.47l2.93,1.2c2.39,0.96,4.13,2.14,5.24,3.53c1.11,1.39,1.66,3.1,1.66,5.12 c0,2.71-0.9,4.94-2.7,6.71c-1.81,1.78-4.07,2.67-6.76,2.67c-2.55,0-4.66-0.76-6.32-2.27c-1.64-1.51-2.66-3.64-3.07-6.39l4.49-0.99 c0.2,1.73,0.56,2.92,1.07,3.58c0.92,1.27,2.25,1.9,4,1.9c1.38,0,2.53-0.47,3.45-1.39c0.91-0.93,1.37-2.1,1.37-3.52 c0-0.57-0.08-1.09-0.24-1.57s-0.41-0.91-0.74-1.31c-0.34-0.4-0.77-0.77-1.31-1.12c-0.53-0.35-1.17-0.68-1.91-1l-2.84-1.18 c-4.03-1.7-6.04-4.18-6.04-7.46c0-2.21,0.84-4.05,2.53-5.54c1.69-1.5,3.79-2.25,6.3-2.25C93.84,7.91,96.49,9.56,98.39,12.84z"/>
      <path d="M102.65,11.62c0-0.75,0.27-1.4,0.82-1.94c0.55-0.55,1.2-0.82,1.96-0.82c0.77,0,1.43,0.27,1.98,0.82 c0.55,0.53,0.82,1.19,0.82,1.96s-0.27,1.43-0.82,1.98c-0.53,0.55-1.19,0.82-1.96,0.82c-0.77,0-1.43-0.27-1.98-0.82 S102.65,12.41,102.65,11.62z M107.59,19.33l0.01,18.55l-4.28,0l-0.01-18.55L107.59,19.33z"/>
      <path d="M130.58,37.42c0,0.88-0.03,1.65-0.08,2.31c-0.06,0.67-0.14,1.25-0.24,1.76c-0.3,1.4-0.9,2.6-1.79,3.6 c-1.67,1.93-3.98,2.9-6.91,2.9c-2.48,0-4.51-0.67-6.11-2c-1.65-1.38-2.61-3.28-2.86-5.7l4.3,0c0.17,0.91,0.44,1.62,0.82,2.11 c0.89,1.15,2.19,1.73,3.89,1.73c3.14,0,4.7-1.92,4.7-5.75l0-2.59c-1.7,1.74-3.66,2.61-5.88,2.61c-2.53,0-4.6-0.91-6.21-2.74 c-1.63-1.85-2.44-4.17-2.44-6.95c0-2.7,0.75-5,2.26-6.9c1.62-2.01,3.77-3.01,6.43-3.01c2.34,0,4.28,0.87,5.83,2.6l0-2.09l4.28,0 L130.58,37.42z M126.46,28.64c0-1.8-0.48-3.24-1.45-4.32c-0.98-1.1-2.23-1.65-3.75-1.65c-1.63,0-2.91,0.61-3.85,1.81 c-0.85,1.08-1.27,2.47-1.27,4.18c0,1.69,0.43,3.07,1.28,4.14c0.93,1.18,2.21,1.77,3.85,1.77c1.64,0,2.93-0.6,3.88-1.79 C126.02,31.71,126.46,30.32,126.46,28.64z"/>
      <path d="M135.58,19.31l4.3,0l0,1.71c1.5-1.49,3.19-2.23,5.06-2.23c2.16,0,3.84,0.68,5.05,2.03c1.04,1.15,1.56,3.04,1.57,5.65 l0.01,11.37l-4.3,0l-0.01-10.35c0-1.83-0.26-3.09-0.76-3.78c-0.5-0.71-1.4-1.06-2.71-1.06c-1.42,0-2.43,0.47-3.03,1.41 c-0.58,0.93-0.87,2.54-0.87,4.85l0.01,8.94l-4.3,0L135.58,19.31z"/>
      <path d="M167.36,22.45l-3.54,1.89c-0.56-1.13-1.25-1.69-2.08-1.69c-0.39,0-0.73,0.13-1.01,0.39s-0.42,0.59-0.42,1 c0,0.71,0.83,1.41,2.48,2.11c2.27,0.98,3.8,1.87,4.59,2.7c0.79,0.82,1.18,1.93,1.18,3.33c0,1.79-0.66,3.28-1.98,4.49 c-1.28,1.14-2.83,1.71-4.65,1.72c-3.11,0-5.31-1.51-6.61-4.55l3.66-1.7c0.51,0.89,0.9,1.45,1.16,1.69 c0.52,0.48,1.14,0.72,1.87,0.72c1.45,0,2.17-0.66,2.17-1.98c0-0.76-0.56-1.47-1.68-2.13c-0.43-0.22-0.86-0.42-1.3-0.63 c-0.43-0.2-0.87-0.41-1.31-0.63c-1.24-0.61-2.12-1.22-2.63-1.83c-0.65-0.77-0.97-1.77-0.97-2.99c0-1.61,0.55-2.95,1.65-4 c1.13-1.05,2.5-1.58,4.11-1.58C164.44,18.77,166.2,20,167.36,22.45z"/>
    </g>
  </g>
  <g>
    <path fill="#ffffff" d="M211.03,13.46c1.62,0.99,3.74,0.45,4.71-1.21c0.97-1.67,0.44-3.85-1.18-4.84c-1.62-1-3.75-0.45-4.72,1.21 C208.87,10.27,209.4,12.46,211.03,13.46z"/>
    <path fill="#ffffff" d="M219.2,20.21l-3.17,0.01l-2.3,0l0-5.29l0.04-0.07c-2.45,0.42-4.22-0.68-5.24-3.2v0c0-0.01-0.01-0.01-0.01-0.02 l-0.01,0.02l-8.22,0.01l0,0.03l-3.11,5.14l-1.39,2.29c-0.45,0.74-0.21,1.7,0.53,2.14h0c0.74,0.45,1.72,0.13,2.17-0.61l1.3-2.16 l2.26-3.71l4.64,0l-6,10.29l0.01,0.01l0,6.58l-3.25,0.01h-2.81c-0.86,0-1.56,0.73-1.56,1.59s0.7,1.56,1.56,1.56h3.21 c0.01,0,0.01,0,0.02,0l2.84,0l3.06,0l0-0.28l0-2.87l-0.01,0l0-4.69l2.16,1.34l0.01-0.01l4.57,2.82l0.01,4.46c0,0.01,0,0.02,0,0.03 v3.21c0,0.86,0.7,1.56,1.56,1.56s1.51-0.7,1.51-1.56v-3.21c0-0.01,0-0.02,0-0.02l-0.01-6.13l0.04-0.07l-6.11-3.77l3.2-5.48l0,0.08 h-0.01l0,3.14l6.54-0.01v0h1.99c0.86,0,1.56-0.7,1.56-1.56C220.76,20.93,220.06,20.21,219.2,20.21z"/>
  </g>
</svg>
