<svg xmlns="http://www.w3.org/2000/svg" viewBox="0 0 251.52 287.94">
  <path fill="transparent" d="M35.85,26.94c0,1.34,0,2.33,0,3.32c0,34.24-0.02,68.49,0.03,102.73c0.01,3.74,0.2,7.51,0.64,11.22 c2.03,16.86,7.7,32.3,18.28,45.76c10.37,13.19,23.2,23.1,39,28.93c13.96,5.14,28.31,7.16,43.17,5.07 c14.07-1.97,27.27-6.33,38.95-14.46c26.43-18.39,39.35-44.16,39.71-76.06c0.39-34.41,0.09-68.82,0.09-103.23c0-1.04,0-2.09,0-3.28 c4.03,0,7.69,0.05,11.34-0.02c1.65-0.03,3.33-0.17,4.95-0.51c6.54-1.39,11.27-7.48,10.62-13.5c-0.85-7.79-5.77-12.68-13.74-12.77 c-17.74-0.19-35.49-0.18-53.24-0.01c-7.66,0.07-12.6,4.82-13.68,12.33c-0.82,5.69,3.31,11.8,9.42,13.63 c1.88,0.56,3.92,0.74,5.9,0.8c3.8,0.12,7.6,0.04,11.57,0.04c0,1.25,0,2.15,0,3.06c0,34.49,0.01,68.99-0.01,103.48 c-0.01,17.49-5.7,32.65-17.91,45.47c-18.65,19.58-47.93,24.57-71.29,13.4c-23.97-11.46-36.61-31.16-36.86-57.91 c-0.32-34.99-0.08-69.99-0.08-104.98c0-0.79,0-1.58,0-2.52c4.04,0,7.7,0.05,11.36-0.02c1.65-0.03,3.33-0.17,4.95-0.51 c6.18-1.32,9.9-5.68,10.6-12.26c0.51-4.77-2.79-10.61-7.5-12.48c-2.34-0.93-4.99-1.49-7.5-1.51C57.71,0.01,40.8,0.03,23.88,0.12 c-2.21,0.01-4.5,0.43-6.6,1.13c-5.54,1.83-9.15,8.23-8.12,13.92c1.37,7.52,6.28,11.64,14.13,11.76 C27.37,26.99,31.44,26.94,35.85,26.94z M125.66,287.94c36.75,0,73.5,0.01,110.25-0.02c1.65,0,3.33-0.15,4.95-0.49 c8.07-1.66,12.43-9.15,9.98-17.02c-1.92-6.19-6.81-9.34-14.55-9.34c-73.67,0-147.33-0.01-221,0.04c-2.21,0-4.49,0.39-6.62,1.02 c-5.85,1.76-9.58,8.12-8.48,14.13c1.39,7.63,6.43,11.66,14.72,11.66C51.82,287.94,88.74,287.94,125.66,287.94z"/>
  <path fill="currentColor" d="M35.85,26.94c-4.42,0-8.49,0.05-12.56-0.01c-7.85-0.12-12.77-4.23-14.13-11.76C8.14,9.48,11.75,3.08,17.29,1.25 c2.1-0.69,4.39-1.12,6.6-1.13C40.8,0.03,57.71,0.01,74.62,0.14c2.51,0.02,5.16,0.58,7.5,1.51c4.71,1.87,8.01,7.72,7.5,12.48 c-0.71,6.58-4.42,10.94-10.6,12.26c-1.61,0.34-3.29,0.48-4.95,0.51c-3.66,0.07-7.32,0.02-11.36,0.02c0,0.93,0,1.72,0,2.52 c0,34.99-0.24,69.99,0.08,104.98c0.25,26.75,12.89,46.45,36.86,57.91c23.36,11.17,52.64,6.18,71.29-13.4 c12.21-12.82,17.9-27.98,17.91-45.47c0.02-34.49,0.01-68.99,0.01-103.48c0-0.9,0-1.81,0-3.06c-3.97,0-7.77,0.09-11.57-0.04 c-1.98-0.06-4.02-0.24-5.9-0.8c-6.11-1.83-10.24-7.94-9.42-13.63c1.08-7.52,6.01-12.26,13.68-12.33 c17.74-0.17,35.49-0.19,53.24,0.01c7.97,0.09,12.89,4.98,13.74,12.77c0.66,6.02-4.08,12.1-10.62,13.5 c-1.61,0.34-3.29,0.48-4.95,0.51c-3.65,0.07-7.31,0.02-11.34,0.02c0,1.19,0,2.24,0,3.28c0,34.41,0.3,68.82-0.09,103.23 c-0.36,31.9-13.28,57.67-39.71,76.06c-11.68,8.13-24.88,12.48-38.95,14.46c-14.86,2.08-29.21,0.07-43.17-5.07 c-15.8-5.82-28.63-15.74-39-28.93c-10.58-13.46-16.24-28.9-18.28-45.76c-0.45-3.71-0.64-7.48-0.64-11.22 c-0.05-34.24-0.03-68.49-0.03-102.73C35.85,29.27,35.85,28.28,35.85,26.94z"/>
  <path fill="currentColor" d="M125.66,287.94c-36.92,0-73.83,0.01-110.75-0.01c-8.29,0-13.33-4.03-14.72-11.66c-1.09-6,2.63-12.37,8.48-14.13 c2.12-0.64,4.41-1.02,6.62-1.02c73.67-0.05,147.33-0.04,221-0.04c7.74,0,12.63,3.15,14.55,9.34c2.45,7.87-1.91,15.36-9.98,17.02 c-1.62,0.33-3.3,0.49-4.95,0.49C199.16,287.94,162.41,287.94,125.66,287.94z"/>
</svg>
