<svg xmlns="http://www.w3.org/2000/svg" viewBox="0 0 287.88 287.95">
  <path fill="transparent" d="M230.88,0c-10.46,0.12-19.24,4.4-26.7,11.87C145.81,70.28,87.47,128.71,28.95,186.98 c-7.41,7.38-12.23,15.63-14.4,25.89c-4.49,21.24-9.53,42.36-14.32,63.53c-1.46,6.43,4.24,12.63,10.47,11.39 c4.32-0.86,8.63-1.79,12.93-2.74c16.57-3.66,33.06-7.74,49.73-10.86c11.01-2.06,19.64-7.22,27.41-15.08 c28.75-29.1,57.78-57.93,86.71-86.85c29.53-29.51,59.07-59.01,88.59-88.52c15.42-15.41,15.79-37.14,0.83-52.44 c-6.64-6.79-13.39-13.48-20.17-20.13C249.63,4.18,241.21,0.09,230.88,0z"/>
  <path fill="currentColor" d="M230.88,0c10.33,0.09,18.74,4.18,25.85,11.16c6.78,6.66,13.53,13.34,20.17,20.13c14.96,15.3,14.59,37.03-0.83,52.44 c-29.52,29.52-59.07,59.01-88.59,88.52c-28.93,28.92-57.96,57.75-86.71,86.85c-7.77,7.86-16.4,13.02-27.41,15.08 c-16.67,3.12-33.16,7.2-49.73,10.86c-4.3,0.95-8.61,1.88-12.93,2.74c-6.23,1.24-11.92-4.96-10.47-11.39 c4.79-21.17,9.83-42.3,14.32-63.53c2.17-10.26,6.99-18.51,14.4-25.89c58.52-58.27,116.86-116.7,175.23-175.11 C211.64,4.4,220.42,0.12,230.88,0z M180.43,73.74c-0.58,0.53-1.02,0.9-1.42,1.3c-44.6,44.6-89.21,89.18-133.72,133.85 c-1.6,1.61-2.8,3.98-3.35,6.21c-3.11,12.51-5.97,25.08-8.9,37.63c-0.18,0.77-0.22,1.57-0.36,2.57c1.24-0.22,2.21-0.35,3.17-0.56 c12.02-2.64,24.03-5.33,36.06-7.92c2.8-0.6,5.02-1.98,7.03-3.98c44.47-44.49,88.96-88.96,133.44-133.43 c0.62-0.62,1.2-1.29,1.75-1.88C202.81,96.19,191.71,85.05,180.43,73.74z"/>
</svg>
