<svg version="1.1" xmlns="http://www.w3.org/2000/svg" viewBox="0 0 142.83 263.59">
  <path fill="currentColor" d="M101.05,131.78c-8.16-8.67-16.15-17.16-24.14-25.65C53.21,80.94,29.48,55.79,5.84,30.55c-5.03-5.37-7.66-11.69-4.41-18.96 C6.35,0.62,20.57-5.19,31.37,6.18c26.33,27.74,52.61,55.53,78.91,83.3c8.94,9.44,17.91,18.84,26.84,28.29 c7.62,8.06,7.57,19.41,0,27.4c-34.73,36.65-69.42,73.35-104.23,109.94c-2.65,2.78-5.77,5.42-9.18,7.11 c-7.12,3.52-16.29-0.01-20.87-7.42c-4.56-7.38-3.41-15.7,3.3-22.78c17.35-18.34,34.75-36.64,52.12-54.96 c13.76-14.51,27.51-29.04,41.26-43.56C99.99,133.01,100.41,132.51,101.05,131.78z"/>
</svg>
