<svg version="1.1" xmlns="http://www.w3.org/2000/svg" viewBox="0 0 288.13 179.7">
  <path fill="currentColor" d="M46.48,76.32c1.67,0,2.74,0,3.8,0c74.06,0,148.13-0.01,222.19,0.04c2.13,0,4.34,0.28,6.38,0.86 c7.05,2,9.16,7.54,9.27,12.74c0.14,6.46-4.41,11.56-10.61,12.73c-1.7,0.32-3.47,0.47-5.2,0.48c-73.98,0.02-147.96,0.02-221.94,0.02 c-1.08,0-2.16,0-3.91,0c0.97,1.05,1.57,1.75,2.22,2.4c16.23,16.41,32.46,32.81,48.69,49.22c0.82,0.83,1.66,1.65,2.35,2.58 c4.85,6.52,5,12.34-0.78,18.46c-5.09,5.4-12.96,4.96-18.9-0.35c-0.5-0.44-0.95-0.93-1.42-1.4c-24.39-24.39-48.78-48.78-73.17-73.17 c-7.24-7.24-7.26-15.08-0.05-22.29C29.84,54.18,54.26,29.71,78.75,5.3c7.74-7.71,15.58-6.68,22.48,0.94 c3.48,3.84,3.39,10.48,0.04,14.82c-0.86,1.12-1.87,2.13-2.86,3.13c-16.72,16.74-33.46,33.47-50.18,50.2 C47.77,74.85,47.35,75.35,46.48,76.32z"/>
</svg>
