<svg xmlns="http://www.w3.org/2000/svg" viewBox="0 0 210.84 210.85">
  <path fill="transparent" d="M105.51,0C47.37-0.1-0.1,47.21,0,105.37c0.1,57.82,46.08,105.41,105.38,105.49 c57.32,0.07,105.32-45.01,105.46-105.36C210.98,46,163.24,0.12,105.51,0z"/>
  <path fill="currentColor" d="M105.51,0c57.73,0.12,105.47,46,105.33,105.5c-0.14,60.34-48.13,105.42-105.46,105.36C46.08,210.78,0.1,163.19,0,105.37 C-0.1,47.21,47.37-0.1,105.51,0z M191.26,105.48c-0.24-47.03-37.03-85.65-85.58-85.82C58.01,19.5,19.8,56.91,19.65,105.24 c-0.15,47.53,37.19,85.82,85.67,85.94C153.26,191.3,190.92,153.28,191.26,105.48z"/>
  <path fill="currentColor" d="M95.51,138.52c0-9.1,0-17.74,0-26.02c-2.78-0.68-5.47-0.99-7.85-2.02c-3.61-1.55-5.52-5.62-5.02-9.48 c0.55-4.16,3.32-7.85,7.29-8.14c5.94-0.44,11.96-0.45,17.89,0.04c3.49,0.29,5.95,2.92,6.82,6.49c0.39,1.6,0.52,3.29,0.53,4.94 c0.04,11.24,0.02,22.49,0.02,34.18c2.11,0,4.07-0.07,6.02,0.01c7.37,0.29,11.88,5.99,9.97,12.54c-1.22,4.22-4.72,6.97-9.54,7.01 c-10.83,0.1-21.66,0.1-32.5,0c-4.6-0.04-7.96-2.44-9.24-6.34c-1.31-3.95-0.84-7.87,2.45-10.45c2-1.57,4.94-2.11,7.54-2.71 C91.64,138.2,93.53,138.52,95.51,138.52z"/>
  <path fill="currentColor" d="M118.51,65.76c0.09,7.52-5.44,13.1-13.01,13.13c-7.51,0.03-13.16-5.55-13.18-13.01c-0.02-7.49,5.56-13.11,13.07-13.18 C112.85,52.62,118.42,58.17,118.51,65.76z"/>
</svg>
