<?xml version="1.0" encoding="utf-8"?>
<!-- Generator: Adobe Illustrator 24.3.0, SVG Export Plug-In . SVG Version: 6.00 Build 0)  -->
<svg version="1.1" id="Calque_1" xmlns="http://www.w3.org/2000/svg" xmlns:xlink="http://www.w3.org/1999/xlink" x="0px" y="0px"
	 viewBox="0 0 210.99 184.83" style="enable-background:new 0 0 210.99 184.83;" xml:space="preserve">
<style type="text/css">
	.st0{fill:#FFFFFF;}
</style>
<g>
	<path class="st0" d="M46.47,130.5c0.24,0.17,0.42,0.24,0.5,0.37c0.52,0.85,1.04,1.7,1.52,2.57c7.14,12.98,17.2,23.01,30.38,29.82
		c11.33,5.86,23.43,8.54,36.15,8.09c15.2-0.54,29.01-6.04,41.97-13.39c21.2-12.02,35.27-30.4,44.44-52.67
		c7.5-18.22,10.4-37.27,9.35-56.95c-0.65-12.13-2.93-23.95-6.68-35.48c-1.15-3.55-2.57-7.06-4.32-10.34
		c-1.72-3.23-6.1-3.35-8.42-0.5c-1.15,1.42-2.06,3.03-3.12,4.52c-8.41,11.82-19.84,18.99-33.95,22.01
		c-9.23,1.98-18.34,0.86-27.51-0.7c-23.52-3.99-44.62,1.24-62.7,17.23c-7.27,6.42-13.26,13.88-17.25,22.73
		c-5.71,12.68-8.16,25.98-6.64,39.93c0.12,1.1-0.5,2.58-1.27,3.44c-3.02,3.34-6.23,6.49-9.37,9.71
		c-13.71,14.09-22.44,31.11-28.86,49.45c-2.15,6.16,0.88,12.36,6.68,14.15c4.75,1.46,10.85-2.42,12.3-7.72
		c0.95-3.44,1.95-6.88,3.19-10.22C27.99,152.75,36.4,141.08,46.47,130.5z"/>
	<path d="M46.47,130.5c-10.07,10.58-18.48,22.25-23.6,36.07c-1.24,3.34-2.24,6.78-3.19,10.22c-1.46,5.3-7.55,9.19-12.3,7.72
		c-5.8-1.79-8.84-7.99-6.68-14.15c6.41-18.35,15.14-35.36,28.86-49.45c3.14-3.22,6.36-6.38,9.37-9.71c0.77-0.86,1.39-2.33,1.27-3.44
		c-1.52-13.95,0.93-27.25,6.64-39.93c3.98-8.85,9.98-16.31,17.25-22.73c18.08-15.99,39.18-21.22,62.7-17.23
		c9.18,1.56,18.29,2.68,27.51,0.7c14.11-3.03,25.53-10.2,33.95-22.01c1.06-1.49,1.97-3.1,3.12-4.52c2.31-2.86,6.69-2.73,8.42,0.5
		c1.75,3.28,3.17,6.8,4.32,10.34c3.75,11.53,6.03,23.35,6.68,35.48c1.05,19.67-1.85,38.72-9.35,56.95
		c-9.17,22.27-23.23,40.65-44.44,52.67c-12.96,7.35-26.77,12.85-41.97,13.39c-12.71,0.45-24.82-2.23-36.15-8.09
		c-13.18-6.81-23.24-16.84-30.38-29.82c-0.48-0.87-1-1.72-1.52-2.57C46.89,130.74,46.71,130.68,46.47,130.5z M62.71,116.72
		c2.89,7.88,7.37,14.57,13.44,20.23c10.85,10.1,23.7,14.73,38.47,14.33c7.63-0.21,14.71-2.47,21.69-5.29
		c23.9-9.65,39.35-27.39,48.19-51.11c5.53-14.83,7.63-30.34,6.74-46.16c-0.28-5.01-1.29-9.98-2.03-15.45
		c-1.21,0.79-1.9,1.19-2.54,1.66c-16.64,12.11-35.36,15.66-55.44,13.22c-7.41-0.9-14.67-2.81-22.28-2.24
		C88.62,47.42,73.8,57.19,64.56,75.28c-3.14,6.15-4.8,12.79-5.13,20.04c1.07-0.59,1.84-1.06,2.65-1.47
		c5.25-2.71,10.35-5.79,15.79-8.04c17.83-7.35,36.52-11.33,55.63-13.43c6.9-0.76,11.96,4.64,10.84,11.41
		c-0.79,4.74-4.09,7.48-9.9,8.22c-16.4,2.1-32.49,5.5-47.92,11.56C78.05,106.91,70.08,111.19,62.71,116.72z"/>
</g>
</svg>
