<svg xmlns="http://www.w3.org/2000/svg" viewBox="0 0 511.68 511.69">
<g>
	<path fill="currentColor" d="M394.42,85.29c-2.63-0.01-5.24,0.08-7.84,0.24C360.74,36.28,311.14,4.01,255.63,0.35
		c-88.04-5.8-164.11,60.86-169.91,148.9h-0.44C38.18,149.25,0,187.43,0,234.53c0,47.1,38.18,85.28,85.28,85.28h223.86
		c5.89,0,10.66-4.77,10.66-10.66c0-5.89-4.77-10.66-10.66-10.66H85.28c-35.32,0-63.96-28.64-63.96-63.96
		c0-35.32,28.64-63.96,63.96-63.96c3.06,0.04,6.11,0.3,9.14,0.79c0.55,0.05,1.11,0.05,1.66,0.02c17.57,2.71,33.57,12.17,44.42,26.61
		c2,2.86,5.26,4.57,8.75,4.56c2.18,0,4.31-0.67,6.09-1.92c4.83-3.37,6.01-10.01,2.65-14.84c-12.7-17.1-30.87-28.98-51.13-33.94
		c2.91-50.73,33.45-96.08,79.93-117.66c65.11-30.23,141.66-5.54,177.45,54.97c-25.18,6.66-47.71,21.67-63.61,43.03
		c-1.38,1.85-2.13,4.09-2.13,6.4c0,5.89,4.77,10.66,10.66,10.66c3.36,0,6.51-1.58,8.53-4.26c15.17-20.38,37.71-33.69,62.47-37.35
		c0.54,0.01,1.08-0.01,1.63-0.09c34.81-4.92,69.53,9.64,90.4,37.93c31.38,42.53,22.34,102.44-20.18,133.82
		c-4.71,3.53-5.66,10.21-2.13,14.92c3.53,4.71,10.21,5.66,14.92,2.13c29.53-22.15,46.9-56.9,46.9-93.81
		C511.68,137.79,459.18,85.29,394.42,85.29z"/>
	<path fill="currentColor" d="M134.66,397c-4.85-3.72-11.79-2.82-15.52,2.03c-6.98,10.11-23.21,35.07-23.21,48.69
		c0,17.66,14.32,31.98,31.98,31.98c17.66,0,31.98-14.32,31.98-31.98c0-13.62-16.22-38.59-23.21-48.69
		C136.11,398.27,135.42,397.59,134.66,397z M127.92,458.39c-5.89,0-10.66-4.77-10.66-10.66c2.31-8.14,5.91-15.87,10.66-22.88
		c4.75,7.01,8.35,14.73,10.66,22.88C138.58,453.62,133.81,458.39,127.92,458.39z"/>
	<path fill="currentColor" d="M219.94,333.04c-4.85-3.72-11.79-2.82-15.52,2.03c-6.98,10.11-23.21,35.07-23.21,48.69
		c0,17.66,14.32,31.98,31.98,31.98c17.66,0,31.98-14.32,31.98-31.98c0-13.62-16.22-38.59-23.21-48.69
		C221.39,334.31,220.7,333.63,219.94,333.04z M213.2,394.43c-5.89,0-10.66-4.77-10.66-10.66c2.31-8.14,5.91-15.87,10.66-22.88
		c4.75,7.01,8.35,14.73,10.66,22.88C223.86,389.66,219.09,394.43,213.2,394.43z"/>
	<path fill="currentColor" d="M380.3,258.73c-4.62-3.98-11.58-3.46-15.56,1.15c-3.51,4.49-34.28,44.09-34.28,70.58
		c0,33.38,15.94,53.3,42.64,53.3s42.64-19.92,42.64-53.3c0-26.49-30.78-66.09-34.28-70.58C381.1,259.48,380.72,259.09,380.3,258.73z
		 M373.1,362.45c-5.28,0-21.32,0-21.32-31.98c0-11.22,11.02-30.9,21.32-45.94c10.3,15.03,21.32,34.7,21.32,45.94
		C394.42,362.45,378.38,362.45,373.1,362.45z"/>
	<path fill="currentColor" d="M294.56,428.98c-4.85-3.72-11.79-2.82-15.52,2.03c-6.98,10.11-23.21,35.07-23.21,48.69
		c0,17.66,14.32,31.98,31.98,31.98c17.66,0,31.98-14.32,31.98-31.98c0-13.62-16.22-38.59-23.21-48.69
		C296.01,430.25,295.32,429.57,294.56,428.98z M287.82,490.37c-5.89,0-10.66-4.77-10.66-10.66c2.31-8.14,5.91-15.87,10.66-22.88
		c4.75,7.01,8.35,14.73,10.66,22.88C298.48,485.6,293.71,490.37,287.82,490.37z"/>
</g>
</svg>
