<svg xmlns="http://www.w3.org/2000/svg" viewBox="0 0 443.2 512">
  <path fill="currentColor" d="M221.6,77.6c-79.2,0-144,64.8-144,144s64.8,144,144,144s144-64.8,144-144S300.8,77.6,221.6,77.6z M221.6,350.4 c-70.4,0-128-57.6-128-128s57.6-128,128-128s128,57.6,128,128S292,350.4,221.6,350.4z M221.6,55.2c4.8,0,8-3.2,8-8V8 c0-4.8-3.2-8-8-8s-8,3.2-8,8v39.2C213.6,51.2,216.8,55.2,221.6,55.2z M92,104c1.6,1.6,4,2.4,5.6,2.4s4-0.8,5.6-2.4 c3.2-3.2,3.2-8,0-11.2L76,65.6c-3.2-3.2-8-3.2-11.2,0s-3.2,8,0,11.2L92,104z M54.4,221.6c0-4.8-3.2-8-8-8H8c-4.8,0-8,3.2-8,8 s3.2,8,8,8h39.2C51.2,229.6,54.4,226.4,54.4,221.6z M435.2,213.6H396c-4.8,0-8,3.2-8,8s3.2,8,8,8h39.2c4.8,0,8-3.2,8-8 S440,213.6,435.2,213.6z M345.6,106.4c2.4,0,4-0.8,5.6-2.4l27.2-27.2c3.2-3.2,3.2-8,0-11.2s-8-3.2-11.2,0L340,92.8 c-3.2,3.2-3.2,8,0,11.2C341.6,105.6,343.2,106.4,345.6,106.4z M243.2,471.2l-13.6,13.6v-88c0-4.8-3.2-8-8-8s-8,3.2-8,8v88 L200,471.2c-3.2-3.2-8-3.2-11.2,0c-3.2,3.2-3.2,8,0,11.2l27.2,27.2c3.2,3.2,8,3.2,11.2,0l27.2-27.2c3.2-3.2,3.2-8,0-11.2 S246.4,468,243.2,471.2z M92,340l-61.6,61.6v-19.2c0-4.8-3.2-8-8-8s-8,3.2-8,8v39.2c0,4.8,4,8,8,8h39.2c4.8,0,8-3.2,8-8s-3.2-8-8-8 H42.4L104,352c3.2-3.2,3.2-8,0-11.2S95.2,336.8,92,340z M420.8,374.4c-4.8,0-8,3.2-8,8v19.2L351.2,340c-3.2-3.2-8-3.2-11.2,0 s-3.2,8,0,11.2l61.6,61.6h-19.2c-4.8,0-8,3.2-8,8s3.2,8,8,8h39.2c4,0,8-3.2,8-8v-39.2C428.8,378.4,425.6,374.4,420.8,374.4z"/>
  <path fill="currentColor" d="M201.6,177.6c-4.8,0-8,3.2-8,8v40c0,13.6-10.4,24-24,24s-24-10.4-24-24v-40c0-4.8-3.2-8-8-8c-4.8,0-8,3.2-8,8 v40c0,22.4,17.6,40,40,40s40-17.6,40-40v-40C209.6,181.6,206.4,177.6,201.6,177.6z M308.8,178.4c-4-1.6-8.8,0-10.4,4l-24.8,55.2 l-24.8-55.2c-1.6-4-6.4-5.6-10.4-4s-5.6,6.4-4,10.4l32,72c1.6,3.2,4,4.8,7.2,4.8s6.4-1.6,7.2-4.8l32-72 C314.4,184.8,312.8,180.8,308.8,178.4z"/>
</svg>
