<svg xmlns="http://www.w3.org/2000/svg" viewBox="0 0 24 24" version="1.1">
  <path fill="currentColor" d="m 4.5590376,9.5196792 c -1.3641764,0 -2.4803207,1.1161448 -2.4803207,2.4803208 0,1.364176 1.1161443,2.480321 2.4803207,2.480321 1.3641765,0 2.4803208,-1.116145 2.4803208,-2.480321 0,-1.364176 -1.1161443,-2.4803208 -2.4803208,-2.4803208 z m 14.8819244,0 c -1.364176,0 -2.48032,1.1161448 -2.48032,2.4803208 0,1.364176 1.116144,2.480321 2.48032,2.480321 1.364177,0 2.480321,-1.116145 2.480321,-2.480321 0,-1.364176 -1.116144,-2.4803208 -2.480321,-2.4803208 z m -7.440962,0 c -1.364176,0 -2.4803208,1.1161448 -2.4803208,2.4803208 0,1.364176 1.1161448,2.480321 2.4803208,2.480321 1.364176,0 2.480321,-1.116145 2.480321,-2.480321 0,-1.364176 -1.116145,-2.4803208 -2.480321,-2.4803208 z" style="stroke-width:1.24016" />
</svg>
