<svg xmlns="http://www.w3.org/2000/svg" viewBox="0 0 263.86 210.97">
  <path fill="transparent" d="M118.67,39.51c0,1.43,0,2.42,0,3.4c0,15.99,0.04,31.98-0.01,47.98c-0.06,16.34-11.58,27.77-27.92,27.8 c-7.33,0.01-14.66,0-21.99,0c-0.88,0-1.75,0-2.68,0c0,9.39-0.24,18.39,0.12,27.37c0.14,3.47,1.11,7.14,2.63,10.28 c4.91,10.16,13.51,14.8,24.59,14.87c16.32,0.1,32.65,0.03,48.98,0.02c0.8,0,1.59-0.11,2.54-0.18c0-1.22,0-2.21,0-3.2 c0-15.91-0.02-31.82,0.01-47.73c0.01-4.45,0.76-8.81,2.8-12.8c5.21-10.18,13.77-15,25.03-15.18c7.41-0.12,14.83-0.02,22.24-0.03 c0.88,0,1.75-0.08,2.81-0.14c0-8.17,0-16.07-0.01-23.97c0-0.91,0-1.84-0.13-2.74c-0.29-2.06-0.41-4.17-1.02-6.14 c-3.86-12.4-13.62-19.56-26.7-19.61c-16.16-0.05-32.32-0.01-48.48-0.01C120.67,39.51,119.85,39.51,118.67,39.51z M158.39,158.24 c0,10.5-0.04,21,0.01,31.5c0.06,12.9,8.23,21.15,21.1,21.19c21,0.06,42,0.06,63,0c12.92-0.04,21.29-8.42,21.32-21.31 c0.04-20.92,0.1-41.83-0.08-62.75c-0.03-3.32-0.73-6.87-2.06-9.9c-3.64-8.34-10.86-11.37-19.43-11.42 c-20.83-0.12-41.67-0.07-62.5-0.03c-13.13,0.02-21.32,8.28-21.36,21.47C158.36,137.41,158.38,147.82,158.39,158.24z M52.83,0.01 c-10.49,0-20.99-0.02-31.48,0.01C8.1,0.05,0.02,8.15,0.01,21.38C0,42.21,0,63.03,0.01,83.85c0.01,13.24,8.08,21.36,21.33,21.38 c20.82,0.03,41.64,0.03,62.46,0c13.38-0.02,21.62-8.33,21.63-21.74c0.01-20.57,0.01-41.14,0-61.71c0-13.42-8.25-21.72-21.62-21.75 C73.48-0.01,63.16,0.01,52.83,0.01z"/>
  <path fill="currentColor" d="M118.67,39.51c1.18,0,2,0,2.82,0c16.16,0,32.32-0.04,48.48,0.01c13.08,0.04,22.84,7.21,26.7,19.61 c0.61,1.96,0.73,4.08,1.02,6.14c0.13,0.9,0.13,1.83,0.13,2.74c0.01,7.9,0.01,15.8,0.01,23.97c-1.05,0.05-1.93,0.14-2.81,0.14 c-7.41,0.01-14.83-0.09-22.24,0.03c-11.26,0.18-19.82,5-25.03,15.18c-2.04,3.99-2.79,8.35-2.8,12.8 c-0.03,15.91-0.01,31.82-0.01,47.73c0,0.99,0,1.97,0,3.2c-0.95,0.07-1.75,0.18-2.54,0.18c-16.33,0.01-32.65,0.08-48.98-0.02 c-11.09-0.07-19.68-4.71-24.59-14.87c-1.52-3.14-2.49-6.81-2.63-10.28c-0.36-8.98-0.12-17.98-0.12-27.37c0.93,0,1.8,0,2.68,0 c7.33,0,14.66,0.01,21.99,0c16.34-0.03,27.86-11.46,27.92-27.8c0.06-15.99,0.01-31.98,0.01-47.98 C118.67,41.92,118.67,40.94,118.67,39.51z"/>
  <path fill="currentColor" d="M158.38,158.24c0-10.42-0.02-20.83,0.01-31.25c0.03-13.19,8.23-21.45,21.36-21.47c20.83-0.04,41.67-0.09,62.5,0.03 c8.57,0.05,15.79,3.08,19.43,11.42c1.32,3.04,2.03,6.58,2.06,9.9c0.18,20.91,0.12,41.83,0.08,62.75 c-0.03,12.89-8.4,21.27-21.32,21.31c-21,0.06-42,0.06-63,0c-12.87-0.04-21.04-8.29-21.1-21.19 C158.35,179.24,158.39,168.74,158.38,158.24z M178.03,191.11c22.12,0,43.98,0,65.85,0c0-22.05,0-43.91,0-65.8 c-22.05,0-43.9,0-65.85,0C178.03,147.31,178.03,169.11,178.03,191.11z"/>
  <path fill="currentColor" d="M52.83,0.01c10.33,0,20.65-0.02,30.98,0.01c13.37,0.03,21.62,8.33,21.62,21.75c0.01,20.57,0.01,41.14,0,61.71 c0,13.41-8.25,21.73-21.63,21.74c-20.82,0.02-41.64,0.03-62.46,0C8.09,105.21,0.02,97.09,0.01,83.85C0,63.03,0,42.21,0.01,21.38 C0.02,8.15,8.1,0.05,21.35,0.01C31.84-0.01,42.34,0.01,52.83,0.01z M19.63,85.54c22.05,0,43.91,0,65.89,0c0-22.01,0-43.87,0-65.84 c-22.02,0-43.88,0-65.89,0C19.63,41.65,19.63,63.45,19.63,85.54z"/>
</svg>
