<svg xmlns="http://www.w3.org/2000/svg" viewBox="0 0 211.14 211.06">
  <path fill="transparent" d="M145.1,52.63c0-8.55,0.03-16.71-0.01-24.87c-0.07-15.88-11.19-27.5-27.07-27.61 C87.71-0.06,57.38-0.04,27.06,0.14C11.32,0.23,0.18,11.46,0.1,27.21c-0.14,30.15-0.12,60.31-0.01,90.46 c0.05,14.86,9.76,25.7,24.36,26.95c7.61,0.65,15.3,0.3,22.96,0.4c1.65,0.02,3.29,0,5.19,0c0-4.43-0.03-8.57,0.01-12.71 c0.15-15.07-0.23-30.17,0.67-45.19c0.7-11.76,7.12-20.93,16.75-27.68c7.14-5.01,15.29-6.77,23.87-6.79 c16.08-0.04,32.15-0.01,48.23-0.01C143.02,52.63,143.92,52.63,145.1,52.63z M66.06,138.41c0,14.83,0,29.67,0,44.5 c0,4.55,0.58,9,2.7,13.08c5.28,10.17,13.91,14.97,25.17,15c29.67,0.08,59.33,0.13,89-0.09c4.29-0.03,8.9-0.92,12.8-2.67 c10.6-4.79,15.27-13.84,15.33-25.11c0.17-29.75,0.08-59.5,0.05-89.25c-0.02-16.02-11.23-27.64-27.22-27.73 c-30.25-0.17-60.5-0.07-90.75-0.03c-6.06,0.01-11.7,1.61-16.55,5.4C69.22,77.25,66,84.92,66.04,94.16 C66.1,108.91,66.06,123.66,66.06,138.41z"/>
  <path fill="currentColor" d="M145.1,52.63c-1.18,0-2.08,0-2.98,0c-16.08,0-32.15-0.03-48.23,0.01c-8.58,0.02-16.73,1.79-23.87,6.79 c-9.63,6.75-16.05,15.93-16.75,27.68c-0.9,15.02-0.52,30.13-0.67,45.19c-0.04,4.14-0.01,8.28-0.01,12.71c-1.9,0-3.54,0.02-5.19,0 c-7.66-0.09-15.35,0.25-22.96-0.4c-14.6-1.25-24.31-12.09-24.36-26.95C-0.02,87.52-0.04,57.36,0.1,27.21 C0.18,11.46,11.32,0.23,27.06,0.14c30.32-0.17,60.64-0.19,90.96,0.01c15.88,0.11,27,11.73,27.07,27.61 C145.13,35.91,145.1,44.07,145.1,52.63z"/>
  <path fill="currentColor" d="M66.06,138.41c0-14.75,0.04-29.5-0.02-44.25C66,84.92,69.22,77.25,76.58,71.5c4.85-3.79,10.49-5.39,16.55-5.4 c30.25-0.04,60.5-0.14,90.75,0.03c15.99,0.09,27.2,11.71,27.22,27.73c0.03,29.75,0.12,59.5-0.05,89.25 c-0.06,11.27-4.73,20.33-15.33,25.11c-3.89,1.76-8.5,2.64-12.8,2.67c-29.66,0.22-59.33,0.17-89,0.09 c-11.26-0.03-19.89-4.83-25.17-15c-2.12-4.08-2.7-8.53-2.7-13.08C66.06,168.07,66.06,153.24,66.06,138.41z M138.4,191.37 c14.74,0,29.49,0,44.23,0c6.69,0,8.7-1.99,8.71-8.58c0.01-29.57,0.01-59.14,0-88.71c0-6.3-2.13-8.45-8.37-8.45 c-29.65,0-59.31,0-88.96,0c-6.13,0-8.41,2.3-8.41,8.48c0,29.57,0,59.14,0,88.71c0,6.32,2.23,8.55,8.57,8.55 C108.92,191.37,123.66,191.37,138.4,191.37z"/>
</svg>
