<svg xmlns="http://www.w3.org/2000/svg" viewBox="0 0 211.09 211.02">
  <path fill="transparent" d="M0.01,72.53c0,14.75,0,29.5,0,44.25c0,4.55,0.56,9,2.66,13.09c5.25,10.18,13.86,15.04,25.12,15.07 c29.75,0.09,59.5,0.14,89.25-0.09c4.28-0.03,8.88-0.99,12.77-2.76c10.51-4.77,15.11-13.79,15.18-24.95 c0.18-29.75,0.08-59.5,0.05-89.25c-0.02-16.15-11.29-27.75-27.39-27.82c-30.17-0.13-60.33-0.06-90.5-0.02 C21,0.06,15.27,1.67,10.38,5.55C3.25,11.21-0.02,18.73,0,27.78C0.03,42.7,0.01,57.62,0.01,72.53z M158.45,85.58 c8.51,0,16.84-0.02,25.16,0.01c5.29,0.02,7.66,2.32,7.67,7.63c0.03,30.16,0.03,60.32,0,90.48c-0.01,5.36-2.27,7.6-7.66,7.61 c-30.08,0.03-60.15,0.03-90.23,0c-5.48,0-7.81-2.44-7.83-8.03c-0.02-7.33-0.01-14.66-0.01-22c0-0.89,0-1.78,0-2.76 c-6.62,0-12.97,0-19.82,0c0.29,10.52,0.48,20.83,0.94,31.12c0.09,2.07,1.01,4.23,1.97,6.13c5.18,10.21,13.77,15.12,25.04,15.16 c29.83,0.1,59.66,0.14,89.48-0.08c4.21-0.03,8.72-0.96,12.54-2.69c10.6-4.81,15.22-13.88,15.28-25.14 c0.17-28.83,0.07-57.65,0.04-86.48c0-2.32-0.16-4.66-0.43-6.96c-1.56-13.1-11.38-22.66-24.56-23.32 c-8.81-0.45-17.66-0.16-26.49-0.19c-0.32,0-0.63,0.13-1.1,0.23C158.45,72.62,158.45,78.91,158.45,85.58z"/>
  <path fill="currentColor" d="M0.01,72.53C0.01,57.62,0.03,42.7,0,27.78c-0.02-9.06,3.25-16.57,10.38-22.23C15.27,1.67,21,0.06,27.16,0.06 c30.17-0.04,60.33-0.11,90.5,0.02c16.11,0.07,27.38,11.67,27.39,27.82c0.03,29.75,0.13,59.5-0.05,89.25 c-0.07,11.16-4.67,20.17-15.18,24.95c-3.89,1.77-8.49,2.73-12.77,2.76c-29.75,0.23-59.5,0.18-89.25,0.09 c-11.26-0.04-19.87-4.89-25.12-15.07c-2.11-4.09-2.67-8.54-2.66-13.09C0.01,102.03,0.01,87.28,0.01,72.53z"/>
  <path fill="currentColor" d="M158.45,85.58c0-6.67,0-12.96,0-19.28c0.46-0.1,0.78-0.23,1.1-0.23c8.83,0.03,17.68-0.26,26.49,0.19 c13.18,0.67,23,10.22,24.56,23.32c0.28,2.31,0.43,4.64,0.43,6.96c0.03,28.83,0.13,57.66-0.04,86.48 c-0.07,11.26-4.68,20.33-15.28,25.14c-3.82,1.73-8.33,2.66-12.54,2.69c-29.83,0.22-59.65,0.19-89.48,0.08 c-11.27-0.04-19.86-4.95-25.04-15.16c-0.96-1.9-1.88-4.05-1.97-6.13c-0.47-10.3-0.65-20.61-0.94-31.12c6.85,0,13.2,0,19.82,0 c0,0.97,0,1.87,0,2.76c0,7.33-0.02,14.66,0.01,22c0.02,5.59,2.35,8.03,7.83,8.03c30.08,0.02,60.15,0.03,90.23,0 c5.39-0.01,7.65-2.25,7.66-7.61c0.03-30.16,0.03-60.32,0-90.48c-0.01-5.31-2.37-7.61-7.67-7.63 C175.29,85.56,166.97,85.58,158.45,85.58z"/>
</svg>
