<svg xmlns="http://www.w3.org/2000/svg" viewBox="0 0 383.48 383.73">
  <path fill="transparent" d="M191.51,0.01c-4.48-0.15-9.63,1.32-14.69,3.39C134.38,20.72,91.93,37.97,49.49,55.29 c-11.09,4.53-22.27,8.85-33.12,13.91C5.41,74.33-0.34,83.68-0.08,95.63c0.31,14.48,8.16,24.88,21.28,30.28 c50.99,21,102.19,41.49,153.23,62.35c11.01,4.5,21.9,4.15,32.55-0.14c42.05-16.92,84-34.11,125.97-51.25 c11.47-4.68,23.09-9.08,34.23-14.46c16.29-7.88,20.18-27.79,12.52-42.28c-3.78-7.15-10.09-11.04-17.28-13.95 c-24.89-10.1-49.77-20.24-74.65-30.38c-26.88-10.95-53.76-21.91-80.64-32.88C202.45,1,197.63-0.12,191.51,0.01z M40.12,190.64 c0.38-0.67,0.53-0.96,0.71-1.24c4.04-6.48,3.8-13.33-0.68-19.59c-4.69-6.54-10.56-8.78-18.29-6.79 C5.15,167.31-2.39,183,0.48,198.05c2.16,11.36,9.35,18.44,19.62,22.8c5.51,2.34,11.1,4.5,16.64,6.79 c45.91,18.95,91.81,37.9,137.71,56.85c10.72,4.43,21.35,4.66,32.24,0.19c51.49-21.11,103.06-42.03,154.56-63.11 c3.51-1.44,6.98-3.27,10-5.53c9.38-7.03,13.5-16.68,11.83-28.21c-1.6-11.05-7.27-19.51-18.11-23.82 c-12.55-4.99-24.73,2.51-25.33,15.55c-0.19,4.09,1.27,7.58,3.51,11.02c-0.98,0.42-1.72,0.77-2.48,1.07 c-17.66,7.13-35.33,14.25-52.99,21.39c-31.47,12.71-62.94,25.42-94.39,38.17c-1.65,0.67-3,0.73-4.7,0.04 c-43.26-17.71-86.55-35.36-129.84-53.02C52.63,195.73,46.48,193.23,40.12,190.64z M40.14,286.63c0.37-0.64,0.56-1.01,0.77-1.36 c3.99-6.43,3.69-13.34-0.85-19.58c-4.66-6.42-10.53-8.65-18.1-6.71C5.2,263.27-2.36,278.88,0.45,293.95 c2.08,11.13,8.99,18.29,19.1,22.64c5.65,2.43,11.39,4.67,17.08,7.01c46.01,18.9,92.05,37.73,138.02,56.74 c10.83,4.48,21.25,4.55,32.16,0.05c43.6-17.98,87.33-35.65,130.99-53.5c9.77-3.99,19.67-7.78,29.12-12.45 c10.72-5.31,16.55-14.59,16.5-26.55c-0.05-13.06-6.27-22.67-18.6-27.9c-12.8-5.43-25.88,3.56-25.04,17.47 c0.19,3.09,1.75,6.09,2.77,9.4c-0.37,0.15-1.18,0.51-2.01,0.85c-17.74,7.16-35.49,14.31-53.22,21.47 c-31.39,12.68-62.78,25.36-94.15,38.1c-1.59,0.64-2.86,0.67-4.46,0.01c-41.5-16.97-83.02-33.89-124.54-50.82 C56.25,293.24,48.33,289.99,40.14,286.63z"/>
  <path fill="currentColor" d="M191.51,0.01c6.11-0.13,10.94,0.99,15.62,2.9c26.88,10.97,53.76,21.93,80.64,32.88c24.88,10.14,49.76,20.28,74.65,30.38 c7.19,2.92,13.5,6.81,17.28,13.95c7.66,14.5,3.78,34.4-12.52,42.28c-11.14,5.39-22.76,9.78-34.23,14.46 c-41.97,17.14-83.92,34.33-125.97,51.25c-10.65,4.29-21.54,4.64-32.55,0.14c-51.05-20.86-102.24-41.36-153.23-62.35 c-13.11-5.4-20.97-15.8-21.28-30.28c-0.26-11.95,5.49-21.3,16.46-26.42c10.84-5.06,22.03-9.39,33.12-13.91 C91.93,37.97,134.38,20.72,176.82,3.4C181.88,1.33,187.03-0.14,191.51,0.01z M339.46,95.37c-1.09-0.5-1.75-0.83-2.44-1.1 c-47.59-19.2-95.18-38.4-142.81-57.51c-1.13-0.45-2.78-0.31-3.94,0.16C142.59,56.09,94.93,75.35,47.27,94.6 c-0.96,0.39-1.89,0.85-3.27,1.47c1.32,0.6,2.18,1.02,3.07,1.38c47.21,19.03,94.42,38.07,141.66,57.02 c1.28,0.51,3.14,0.49,4.43-0.03c43.44-17.47,86.85-35.04,130.27-52.59C328.65,99.74,333.87,97.63,339.46,95.37z"/>
  <path fill="currentColor" d="M40.12,190.64c6.35,2.59,12.5,5.09,18.65,7.6c43.29,17.66,86.58,35.31,129.84,53.02c1.7,0.7,3.05,0.63,4.7-0.04 c31.45-12.76,62.92-25.46,94.39-38.17c17.66-7.13,35.33-14.26,52.99-21.39c0.76-0.31,1.5-0.65,2.48-1.07 c-2.25-3.44-3.7-6.93-3.51-11.02c0.6-13.03,12.78-20.54,25.33-15.55c10.83,4.31,16.51,12.77,18.11,23.82 c1.67,11.53-2.45,21.18-11.83,28.21c-3.02,2.27-6.49,4.1-10,5.53c-51.5,21.08-103.07,42-154.56,63.11 c-10.9,4.47-21.52,4.23-32.24-0.19c-45.9-18.95-91.8-37.91-137.71-56.85c-5.54-2.28-11.12-4.45-16.64-6.79 c-10.27-4.36-17.46-11.44-19.62-22.8c-2.87-15.05,4.67-30.74,21.38-35.04c7.73-1.99,13.6,0.26,18.29,6.79 c4.49,6.26,4.72,13.11,0.68,19.59C40.66,189.68,40.5,189.97,40.12,190.64z"/>
  <path fill="currentColor" d="M40.14,286.63c8.2,3.36,16.11,6.61,24.04,9.84c41.52,16.93,83.04,33.84,124.54,50.82c1.6,0.66,2.88,0.63,4.46-0.01 c31.37-12.73,62.76-25.41,94.15-38.1c17.74-7.17,35.48-14.31,53.22-21.47c0.83-0.33,1.65-0.69,2.01-0.85 c-1.02-3.32-2.58-6.32-2.77-9.4c-0.84-13.9,12.25-22.89,25.04-17.47c12.33,5.23,18.55,14.84,18.6,27.9 c0.05,11.96-5.78,21.24-16.5,26.55c-9.45,4.68-19.34,8.46-29.12,12.45c-43.66,17.84-87.39,35.52-130.99,53.5 c-10.91,4.5-21.33,4.43-32.16-0.05c-45.97-19.01-92.01-37.85-138.02-56.74c-5.69-2.34-11.43-4.58-17.08-7.01 c-10.11-4.35-17.02-11.51-19.1-22.64c-2.81-15.07,4.74-30.68,21.51-34.96c7.57-1.93,13.44,0.3,18.1,6.71 c4.54,6.24,4.83,13.15,0.85,19.58C40.69,285.63,40.5,285.99,40.14,286.63z"/>
</svg>
