<svg xmlns="http://www.w3.org/2000/svg" viewBox="0 0 263.84 210.96">
  <path fill="transparent" d="M131.59,171.24c12.75,0,25.49,0,38.24,0c4.46,0,8.82-0.63,12.83-2.68c10.23-5.21,15.06-13.86,15.12-25.08 c0.14-25.33,0.07-50.66,0-75.98c-0.01-2.72-0.28-5.54-1.05-8.14c-3.65-12.32-13.43-19.76-26.29-19.81 c-25.74-0.11-51.49-0.14-77.23,0.01c-15.67,0.09-27.1,11.47-27.17,26.95c-0.11,25.99-0.14,51.99,0.09,77.98 c0.04,3.95,1,8.2,2.69,11.77c4.85,10.31,13.59,14.89,24.78,14.96C106.26,171.3,118.93,171.24,131.59,171.24z M158.39,184.78 c0,1.73-0.01,3.21,0,4.7c0.06,13.31,8.23,21.45,21.6,21.46c20.67,0.02,41.33,0.03,62-0.03c2.15-0.01,4.36-0.18,6.42-0.71 c9.97-2.59,15.4-9.85,15.42-20.56c0.03-20.92,0.03-41.83-0.02-62.75c-0.01-2.06-0.22-4.18-0.74-6.17 c-2.49-9.55-9.93-15.12-20.28-15.2c-9.75-0.08-19.5-0.02-29.25-0.01c-0.73,0-1.46,0.09-2.3,0.15c0,6.5,0,12.86,0,19.55 c11,0,21.86,0,32.65,0c0,22.2,0,44.07,0,65.86c-22.06,0-43.93,0-66.07,0c0-2.24,0-4.28,0-6.3 C171.28,184.78,165.05,184.78,158.39,184.78z M85.64,25.89c6.83,0,13.27,0,19.79,0c0-1.47,0-2.72,0-3.97 c-0.01-13.6-8.21-21.89-21.73-21.9C62.87,0,42.04-0.01,21.22,0.02C8.12,0.05,0.02,8.2,0.01,21.29C0,42.2,0,63.11,0.01,84.02 c0.01,12.97,8.09,21.13,21.01,21.21c9.58,0.05,19.16,0.02,28.74,0c0.87,0,1.74-0.1,2.55-0.16c0-6.62,0-12.91,0-19.43 c-10.96,0-21.75,0-32.67,0c0-22.1,0-43.96,0-65.94c22.02,0,43.89,0,65.99,0C85.64,21.8,85.64,23.76,85.64,25.89z"/>
  <path fill="currentColor" d="M131.59,171.24c-12.66,0-25.33,0.06-37.99-0.02c-11.19-0.07-19.93-4.65-24.78-14.96c-1.68-3.57-2.65-7.82-2.69-11.77 c-0.23-25.99-0.2-51.99-0.09-77.98c0.07-15.47,11.5-26.86,27.17-26.95c25.74-0.15,51.49-0.11,77.23-0.01 c12.85,0.05,22.64,7.49,26.29,19.81c0.77,2.59,1.04,5.42,1.05,8.14c0.08,25.33,0.14,50.66,0,75.98 c-0.06,11.22-4.89,19.87-15.12,25.08c-4.01,2.04-8.37,2.68-12.83,2.68C157.09,171.24,144.34,171.24,131.59,171.24z"/>
  <path fill="currentColor" d="M158.39,184.78c6.66,0,12.9,0,19.41,0c0,2.03,0,4.06,0,6.3c22.14,0,44,0,66.07,0c0-21.79,0-43.66,0-65.86 c-10.79,0-21.64,0-32.65,0c0-6.69,0-13.05,0-19.55c0.85-0.06,1.57-0.15,2.3-0.15c9.75-0.01,19.5-0.07,29.25,0.01 c10.36,0.08,17.79,5.65,20.28,15.2c0.52,1.99,0.74,4.11,0.74,6.17c0.05,20.91,0.06,41.83,0.02,62.75 c-0.02,10.71-5.44,17.97-15.42,20.56c-2.07,0.54-4.28,0.71-6.42,0.71c-20.66,0.05-41.33,0.04-62,0.03 c-13.37-0.01-21.54-8.16-21.6-21.46C158.38,188,158.39,186.51,158.39,184.78z"/>
  <path fill="currentColor" d="M85.64,25.89c0-2.13,0-4.09,0-6.19c-22.1,0-43.97,0-65.99,0c0,21.98,0,43.84,0,65.94c10.91,0,21.7,0,32.67,0 c0,6.53,0,12.82,0,19.43c-0.81,0.05-1.68,0.16-2.55,0.16c-9.58,0.01-19.16,0.05-28.74,0c-12.92-0.07-21-8.24-21.01-21.21 C0,63.11,0,42.2,0.01,21.29C0.02,8.2,8.12,0.05,21.22,0.02C42.04-0.01,62.87,0,83.7,0.02c13.52,0.01,21.72,8.3,21.73,21.9 c0,1.25,0,2.5,0,3.97C98.91,25.89,92.47,25.89,85.64,25.89z"/>
</svg>
