<svg xmlns="http://www.w3.org/2000/svg" viewBox="0 0 239.9 239.93">
  <path fill="transparent" d="M239.87,82.55c0-17.24,0.07-34.49-0.02-51.73c-0.09-17.38-13.17-30.67-30.49-30.73 c-34.57-0.12-69.14-0.13-103.71,0C88.13,0.17,75.05,13.47,75.02,30.93c-0.05,34.32-0.05,68.64,0,102.96 c0.02,17.64,13.11,30.94,30.76,31c34.49,0.12,68.97,0.06,103.46,0.01c5.4-0.01,10.62-1.18,15.3-3.97 c10.24-6.11,15.23-15.33,15.31-27.14C239.96,116.71,239.87,99.63,239.87,82.55z M59.74,75.06c-0.92,0-1.73,0-2.54,0 c-8.66,0-17.33-0.02-25.99,0c-18.02,0.06-31.19,13.26-31.2,31.32C0,140.37,0,174.37,0.01,208.36 c0.01,18.43,13.08,31.55,31.46,31.56c33.99,0.02,67.98,0.02,101.98,0c18.23-0.01,31.38-13.15,31.42-31.35 c0.02-8.66,0.01-17.33,0-25.99c0-0.8-0.08-1.6-0.11-2.33c-7.54,0-14.82,0-22.25,0c0,9.5,0.01,18.83,0,28.15 c-0.01,6.54-2.57,9.16-9.02,9.16c-34.08,0.01-68.15,0.01-102.23,0c-6.19,0-8.88-2.66-8.88-8.79c-0.01-34.24-0.01-68.48,0-102.73 c0-5.82,2.75-8.59,8.57-8.61c8.66-0.03,17.33-0.01,25.99-0.01c0.89,0,1.79,0,2.8,0C59.74,89.89,59.74,82.6,59.74,75.06z"/>
  <path fill="currentColor" d="M239.87,82.55c0,17.08,0.08,34.15-0.03,51.23c-0.08,11.81-5.07,21.03-15.31,27.14c-4.68,2.79-9.9,3.96-15.3,3.97 c-34.49,0.05-68.97,0.11-103.46-0.01c-17.65-0.06-30.73-13.36-30.76-31c-0.05-34.32-0.05-68.64,0-102.96 c0.02-17.46,13.1-30.76,30.63-30.83c34.57-0.14,69.14-0.13,103.71,0c17.31,0.06,30.39,13.35,30.49,30.73 C239.94,48.07,239.87,65.31,239.87,82.55z M97.37,82.51c0,16.99,0,33.98,0,50.98c0,6.48,2.6,9.07,9.1,9.07 c33.98,0.01,67.97,0.01,101.95,0c6.48,0,9.08-2.61,9.08-9.1c0.01-33.98,0.01-67.97,0-101.95c0-6.48-2.6-9.07-9.11-9.08 c-33.98-0.01-67.97-0.01-101.95,0c-6.48,0-9.07,2.61-9.07,9.11C97.37,48.53,97.37,65.52,97.37,82.51z"/>
  <path fill="currentColor" d="M59.74,75.06c0,7.55,0,14.83,0,22.36c-1.02,0-1.91,0-2.8,0c-8.66,0-17.33-0.02-25.99,0.01c-5.82,0.02-8.57,2.79-8.57,8.61 c-0.01,34.24-0.01,68.48,0,102.73c0,6.13,2.69,8.79,8.88,8.79c34.08,0.01,68.15,0.01,102.23,0c6.45,0,9.01-2.62,9.02-9.16 c0.01-9.32,0-18.64,0-28.15c7.42,0,14.71,0,22.25,0c0.04,0.74,0.11,1.53,0.11,2.33c0.01,8.66,0.02,17.33,0,25.99 c-0.04,18.2-13.19,31.34-31.42,31.35c-33.99,0.02-67.98,0.02-101.98,0c-18.38-0.01-31.45-13.13-31.46-31.56 C0,174.37,0,140.37,0.01,106.38c0.01-18.06,13.17-31.26,31.2-31.32c8.66-0.03,17.33,0,25.99,0C58.01,75.06,58.82,75.06,59.74,75.06 z"/>
</svg>
