<svg xmlns="http://www.w3.org/2000/svg" viewBox="0 0 287.37 287.48">
  <path fill="transparent" d="M107.99,35.77c-26.24,0-52.48,0-78.72,0C11.43,35.78,0.01,47.17,0,64.96c0,10.66-0.01,21.33,0,31.99 c0.02,17.09,11.63,28.68,28.77,28.68c52.73,0.01,105.46,0.01,158.19,0c17.31,0,28.89-11.55,28.9-28.81 c0.01-10.75,0.01-21.49,0-32.24c-0.02-17.26-11.6-28.81-28.9-28.81C160.64,35.77,134.32,35.77,107.99,35.77z M143.89,251.64 c14.41,0,28.82,0.01,43.23,0c17.11-0.01,28.73-11.62,28.75-28.71c0.01-10.74,0.01-21.49,0-32.23 c-0.01-17.42-11.55-28.91-29.04-28.92c-28.57,0-57.14,0-85.7,0c-17.64,0-29.11,11.46-29.12,29.09c0,10.58,0,21.16,0,31.73 c0.01,17.6,11.49,29.04,29.16,29.04C115.41,251.64,129.65,251.64,143.89,251.64z M287.87,143.96c0-42.75,0.01-85.5-0.02-128.25 c0-1.74-0.19-3.49-0.48-5.2c-1.23-7.19-8.08-11.57-15.19-10.28c-7.35,1.34-11.17,6.43-11.17,14.83c0,85.75-0.01,171.5,0.02,257.25 c0,1.65,0.18,3.34,0.53,4.95c1.28,5.93,6.17,10.23,12.55,10.23c5.31,0,10.87-2.32,12.82-9.14c0.59-2.05,0.9-4.25,0.9-6.38 C287.88,229.29,287.87,186.62,287.87,143.96z"/>
  <path fill="currentColor" d="M107.99,35.77c26.32,0,52.65,0,78.97,0c17.31,0,28.89,11.55,28.9,28.81c0.01,10.75,0.01,21.49,0,32.24 c-0.01,17.26-11.59,28.81-28.9,28.81c-52.73,0.01-105.46,0.01-158.19,0c-17.14,0-28.75-11.59-28.77-28.68 c-0.01-10.66,0-21.33,0-31.99c0-17.79,11.43-29.19,29.27-29.19C55.51,35.77,81.75,35.77,107.99,35.77z M26.96,98.62 c54.12,0,107.96,0,161.9,0c0-12.01,0-23.87,0-35.79c-54.04,0-107.95,0-161.9,0C26.96,74.83,26.96,86.63,26.96,98.62z"/>
  <path fill="currentColor" d="M143.89,251.64c-14.24,0-28.49,0-42.73,0c-17.67,0-29.16-11.45-29.16-29.04c0-10.58,0-21.16,0-31.73 c0-17.63,11.47-29.09,29.12-29.09c28.57,0,57.14,0,85.7,0c17.49,0,29.03,11.49,29.04,28.92c0.01,10.74,0.01,21.49,0,32.23 c-0.02,17.09-11.64,28.7-28.75,28.71C172.71,251.65,158.3,251.64,143.89,251.64z M98.98,224.61c30.13,0,59.98,0,89.88,0 c0-12.02,0-23.88,0-35.76c-30.06,0-59.97,0-89.88,0C98.98,200.86,98.98,212.66,98.98,224.61z"/>
  <path fill="currentColor" d="M287.87,143.96c0,42.67,0.01,85.33-0.04,128c0,2.13-0.31,4.33-0.9,6.38c-1.95,6.83-7.52,9.14-12.82,9.14 c-6.38,0-11.27-4.29-12.55-10.23c-0.35-1.61-0.53-3.3-0.53-4.95C261,186.55,261,100.8,261.01,15.05c0-8.39,3.82-13.48,11.17-14.83 c7.1-1.3,13.96,3.09,15.19,10.28c0.29,1.71,0.48,3.47,0.48,5.2C287.87,58.46,287.87,101.21,287.87,143.96z"/>
</svg>
