<svg xmlns="http://www.w3.org/2000/svg" viewBox="0 0 287.37 287.48">
  <path fill="transparent" d="M35.97,186.77c0,17.31,11.55,28.89,28.81,28.9c10.75,0.01,21.49,0.01,32.24,0 c17.26-0.01,28.81-11.59,28.81-28.9c0.01-52.73,0.01-105.46,0-158.19c0-17.14-11.59-28.75-28.68-28.77c-10.66-0.01-21.33,0-31.99,0 c-17.79,0-29.19,11.43-29.19,29.27c0,26.24,0,52.48,0,78.72C35.97,134.12,35.97,160.44,35.97,186.77z M251.83,100.97 c0-17.67-11.45-29.16-29.04-29.16c-10.58,0-21.16,0-31.73,0c-17.63,0-29.09,11.47-29.09,29.12c0,28.57,0,57.14,0,85.7 c0,17.49,11.49,29.03,28.92,29.04c10.74,0.01,21.49,0.01,32.23,0c17.09-0.02,28.7-11.64,28.71-28.75c0.01-14.41,0-28.82,0-43.23 C251.84,129.46,251.84,115.21,251.83,100.97z M272.15,287.63c2.13,0,4.33-0.31,6.38-0.9c6.83-1.95,9.14-7.52,9.14-12.82 c0-6.38-4.29-11.27-10.23-12.55c-1.61-0.35-3.3-0.53-4.95-0.53c-85.75-0.02-171.5-0.02-257.25-0.02c-8.39,0-13.48,3.82-14.83,11.17 c-1.3,7.1,3.09,13.96,10.28,15.19c1.71,0.29,3.47,0.48,5.2,0.48c42.75,0.03,85.5,0.02,128.25,0.02 C186.82,287.67,229.49,287.69,272.15,287.63z"/>
  <path fill="currentColor" d="M35.97,29.08c0-17.84,11.4-29.27,29.19-29.27c10.66,0,21.33-0.01,31.99,0c17.09,0.02,28.68,11.63,28.68,28.77 c0.01,52.73,0.01,105.46,0,158.19c0,17.31-11.55,28.89-28.81,28.9c-10.75,0.01-21.49,0.01-32.24,0 c-17.26-0.02-28.81-11.6-28.81-28.9c-0.01-26.32,0-52.65,0-78.97C35.97,81.56,35.97,55.32,35.97,29.08z M63.03,26.77 c0,53.95,0,107.86,0,161.9c11.92,0,23.78,0,35.79,0c0-53.94,0-107.78,0-161.9C86.83,26.77,75.03,26.77,63.03,26.77z"/>
  <path fill="currentColor" d="M251.83,186.93c-0.01,17.11-11.62,28.73-28.71,28.75c-10.74,0.01-21.49,0.01-32.23,0c-17.42-0.01-28.91-11.55-28.92-29.04 c0-28.57,0-57.14,0-85.7c0-17.64,11.46-29.11,29.09-29.12c10.58,0,21.16,0,31.73,0c17.6,0.01,29.04,11.49,29.04,29.16 c0,14.24,0,28.49,0,42.73C251.84,158.11,251.84,172.52,251.83,186.93z M189.04,98.78c0,29.91,0,59.82,0,89.88 c11.88,0,23.74,0,35.76,0c0-29.9,0-59.75,0-89.88C212.85,98.78,201.05,98.78,189.04,98.78z"/>
  <path fill="currentColor" d="M144.15,287.67c42.67,0,85.33,0.01,128-0.04c2.13,0,4.33-0.31,6.38-0.9c6.83-1.95,9.14-7.52,9.14-12.82 c0-6.38-4.29-11.27-10.23-12.55c-1.61-0.35-3.3-0.53-4.95-0.53c-85.75-0.02-171.5-0.02-257.25-0.02c-8.39,0-13.48,3.82-14.83,11.17 c-1.3,7.1,3.09,13.96,10.28,15.19c1.71,0.29,3.47,0.48,5.2,0.48C58.65,287.68,101.4,287.67,144.15,287.67z"/>
</svg>
