<svg xmlns="http://www.w3.org/2000/svg" viewBox="0 0 287.65 251.95">
  <path fill="transparent" d="M161.97,139.48c0,1.28,0,2.28,0,3.27c0,15.08-0.06,30.16,0.02,45.25c0.08,16.01,11.87,27.78,27.84,27.86 c11.33,0.06,22.67,0.06,34-0.01c5.78-0.04,11.24-1.47,16.08-4.7c8.26-5.51,11.76-13.66,11.88-23.24c0.2-15.16,0.05-30.33,0.05-45.5 c0-0.96,0-1.92,0-3.04c5.19,0,10.02,0.06,14.84-0.02c3.4-0.05,6.87,0.08,10.19-0.52c8.03-1.45,10.86-7.22,10.78-12.99 c-0.07-5.84-2.84-11.4-10.94-12.87c-1.63-0.29-3.3-0.44-4.95-0.45c-6.56-0.05-13.11-0.02-19.92-0.02c0-1.25,0-2.23,0-3.21 c0-15.08,0.05-30.16-0.02-45.25c-0.07-16.21-11.78-27.94-27.92-28.03c-11.42-0.06-22.84-0.24-34.24,0.11 c-4.06,0.12-8.36,1-12.06,2.64c-10.76,4.79-15.38,13.9-15.56,25.25c-0.24,15.16-0.06,30.33-0.06,45.5c0,0.96,0,1.91,0,2.79 c-12.27,0-24.14,0-36.14,0c0-1.19,0-2.18,0-3.18c0-26.75,0.01-53.5,0-80.24C125.82,11.58,114.26,0.02,96.98,0 C86.31,0,75.65,0,64.98,0c-17.49,0.01-29.01,11.5-29.01,28.96c0,26.83,0,53.66,0,80.49c0,0.96,0,1.92,0,3.04 c-7.11,0-13.85-0.08-20.58,0.04c-2.13,0.04-4.32,0.38-6.37,0.97c-5.31,1.51-8.78,6.37-9,12.23c-0.2,5.29,3.37,10.74,8.45,12.37 c2.26,0.73,4.7,1.14,7.08,1.2c6.72,0.16,13.45,0.05,20.44,0.05c0,1.24,0,2.21,0,3.19c0,27.08-0.04,54.16,0.01,81.24 c0.03,16.17,11.78,27.96,27.9,28.05c11.33,0.07,22.67,0.21,33.99-0.1c3.91-0.11,8.02-0.92,11.63-2.4 c11.36-4.68,16.18-14.01,16.27-25.76c0.2-27.08,0.06-54.16,0.06-81.24c0-0.96,0-1.91,0-2.87 C138.05,139.48,149.86,139.48,161.97,139.48z"/>
  <path fill="currentColor" d="M161.97,139.48c-12.11,0-23.92,0-36.14,0c0,0.96,0,1.91,0,2.87c0,27.08,0.14,54.16-0.06,81.24 c-0.09,11.75-4.92,21.08-16.27,25.76c-3.61,1.49-7.72,2.3-11.63,2.4c-11.32,0.31-22.66,0.16-33.99,0.1 c-16.12-0.09-27.86-11.88-27.9-28.05c-0.05-27.08-0.01-54.16-0.01-81.24c0-0.98,0-1.95,0-3.19c-6.99,0-13.71,0.1-20.44-0.05 c-2.37-0.06-4.82-0.47-7.08-1.2c-5.08-1.64-8.65-7.08-8.45-12.37c0.22-5.86,3.7-10.72,9-12.23c2.05-0.58,4.24-0.93,6.37-0.97 c6.74-0.12,13.48-0.04,20.58-0.04c0-1.12,0-2.08,0-3.04c0-26.83,0-53.66,0-80.49C35.97,11.51,47.49,0.01,64.98,0 c10.67,0,21.33-0.01,32,0c17.28,0.01,28.85,11.58,28.85,28.88c0.01,26.75,0,53.5,0,80.24c0,0.99,0,1.99,0,3.18 c12,0,23.86,0,36.14,0c0-0.88,0-1.83,0-2.79c0-15.17-0.18-30.33,0.06-45.5c0.18-11.35,4.81-20.46,15.56-25.25 c3.7-1.65,8-2.52,12.06-2.64c11.41-0.35,22.83-0.17,34.24-0.11c16.15,0.09,27.85,11.82,27.92,28.03 c0.07,15.08,0.01,30.16,0.02,45.25c0,0.98,0,1.96,0,3.21c6.8,0,13.36-0.03,19.92,0.02c1.65,0.01,3.33,0.15,4.95,0.45 c8.11,1.47,10.87,7.03,10.94,12.87c0.07,5.76-2.75,11.54-10.78,12.99c-3.32,0.6-6.79,0.47-10.19,0.52 c-4.82,0.08-9.65,0.02-14.84,0.02c0,1.11,0,2.08,0,3.04c0,15.17,0.14,30.33-0.05,45.5c-0.12,9.59-3.62,17.73-11.88,23.24 c-4.84,3.23-10.3,4.66-16.08,4.7c-11.33,0.07-22.67,0.07-34,0.01c-15.96-0.08-27.75-11.85-27.84-27.86 c-0.08-15.08-0.02-30.16-0.02-45.25C161.97,141.76,161.97,140.76,161.97,139.48z M62.99,26.98c0,66.13,0,131.98,0,197.87 c12.03,0,23.89,0,35.77,0c0-66.06,0-131.96,0-197.87C86.75,26.98,74.95,26.98,62.99,26.98z M188.98,62.96c0,42.11,0,83.96,0,125.91 c12.01,0,23.87,0,35.8,0c0-42.04,0-83.94,0-125.91C212.79,62.96,200.99,62.96,188.98,62.96z"/>
</svg>
