<svg xmlns="http://www.w3.org/2000/svg" viewBox="0 0 287.37 287.48">
  <path fill="transparent" d="M100.91,35.78c-17.31,0-28.89,11.55-28.9,28.81c-0.01,10.75-0.01,21.49,0,32.24 c0.01,17.26,11.59,28.81,28.9,28.81c52.73,0.01,105.46,0.01,158.19,0c17.14,0,28.75-11.59,28.77-28.68c0.01-10.66,0-21.33,0-31.99 c0-17.79-11.43-29.19-29.27-29.19c-26.24,0-52.48,0-78.72,0C153.55,35.77,127.23,35.77,100.91,35.78z M186.7,251.64 c17.67,0,29.16-11.45,29.16-29.04c0-10.58,0-21.16,0-31.73c0-17.63-11.47-29.09-29.12-29.09c-28.57,0-57.14,0-85.7,0 c-17.49,0-29.03,11.49-29.04,28.92c-0.01,10.74-0.01,21.49,0,32.23c0.02,17.09,11.64,28.7,28.75,28.71c14.41,0.01,28.82,0,43.23,0 C158.22,251.64,172.46,251.64,186.7,251.64z M0.04,271.96c0,2.13,0.31,4.33,0.9,6.38c1.95,6.83,7.52,9.14,12.82,9.14 c6.38,0,11.27-4.29,12.55-10.23c0.35-1.61,0.53-3.3,0.53-4.95c0.02-85.75,0.02-171.5,0.02-257.25c0-8.39-3.82-13.48-11.17-14.83 C8.59-1.07,1.74,3.31,0.5,10.5c-0.29,1.71-0.48,3.47-0.48,5.2C0,58.46,0,101.21,0,143.96C0,186.62-0.01,229.29,0.04,271.96z"/>
  <path fill="currentColor" d="M258.6,35.78c17.84,0,29.27,11.4,29.27,29.19c0,10.66,0.01,21.33,0,31.99c-0.02,17.09-11.63,28.68-28.77,28.68 c-52.73,0.01-105.46,0.01-158.19,0c-17.31,0-28.89-11.55-28.9-28.81c-0.01-10.75-0.01-21.49,0-32.24 c0.02-17.26,11.6-28.81,28.9-28.81c26.32-0.01,52.65,0,78.97,0C206.12,35.77,232.36,35.77,258.6,35.78z M260.91,62.83 c-53.95,0-107.86,0-161.9,0c0,11.92,0,23.78,0,35.79c53.94,0,107.78,0,161.9,0C260.91,86.63,260.91,74.83,260.91,62.83z"/>
  <path fill="currentColor" d="M100.75,251.64c-17.11-0.01-28.73-11.62-28.75-28.71c-0.01-10.74-0.01-21.49,0-32.23c0.01-17.42,11.55-28.91,29.04-28.92 c28.57,0,57.14,0,85.7,0c17.64,0,29.11,11.46,29.12,29.09c0,10.58,0,21.16,0,31.73c-0.01,17.6-11.49,29.04-29.16,29.04 c-14.24,0-28.49,0-42.73,0C129.57,251.64,115.16,251.65,100.75,251.64z M188.89,188.85c-29.91,0-59.82,0-89.88,0 c0,11.88,0,23.74,0,35.76c29.9,0,59.75,0,89.88,0C188.89,212.66,188.89,200.86,188.89,188.85z"/>
  <path fill="currentColor" d="M0,143.96c0,42.67-0.01,85.33,0.04,128c0,2.13,0.31,4.33,0.9,6.38c1.95,6.83,7.52,9.14,12.82,9.14 c6.38,0,11.27-4.29,12.55-10.23c0.35-1.61,0.53-3.3,0.53-4.95c0.02-85.75,0.02-171.5,0.02-257.25c0-8.39-3.82-13.48-11.17-14.83 C8.59-1.07,1.74,3.31,0.5,10.5c-0.29,1.71-0.48,3.47-0.48,5.2C0,58.46,0,101.21,0,143.96z"/>
</svg>
