<svg xmlns="http://www.w3.org/2000/svg" viewBox="0 0 287.52 287.87">
  <path fill="transparent" d="M35.78,179.92c0,26.41-0.01,52.81,0,79.22c0.01,17.11,11.61,28.71,28.73,28.72c10.75,0.01,21.49,0.01,32.24,0 c17.31-0.01,28.89-11.55,28.89-28.82c0.01-52.73,0.01-105.46,0-158.19c0-17.28-11.58-28.84-28.86-28.85C86.11,72,75.45,72,64.79,72 c-17.49,0.01-29.01,11.5-29.01,28.95C35.77,127.28,35.78,153.6,35.78,179.92z M251.64,143.76c0-14.58,0.06-29.15-0.01-43.73 c-0.08-16.2-11.78-27.93-27.92-28.01c-11.41-0.06-22.82-0.07-34.23,0c-15.77,0.1-27.59,11.7-27.65,27.47 c-0.13,29.57-0.14,59.14,0.01,88.71c0.08,15.68,11.64,27.41,27,27.63c11.83,0.17,23.66,0.25,35.48-0.03 c8.58-0.21,16.12-3.26,21.53-10.33c4.05-5.29,5.75-11.42,5.79-17.97C251.7,172.91,251.64,158.34,251.64,143.76z M143.83,0 C101.08,0,58.33,0,15.58,0.02c-1.73,0-3.5,0.18-5.2,0.52C4.18,1.81,0.02,6.56-0.1,13.11c-0.09,4.62,2.11,10.92,9.19,12.77 c2.15,0.56,4.41,0.94,6.62,0.94c85.33,0.05,170.67,0.04,256,0.04c0.67,0,1.34,0.05,2-0.01c5.5-0.56,10.24-2.38,12.58-7.94 c2.21-5.25,1.42-10.16-2.2-14.45c-3.02-3.59-7.32-4.44-11.76-4.44C229.49-0.01,186.66,0,143.83,0z"/>
  <path fill="currentColor" d="M35.78,179.92c0-26.32,0-52.65,0-78.97C35.78,83.5,47.3,72.01,64.79,72c10.66,0,21.32-0.01,31.99,0 c17.29,0.01,28.86,11.57,28.86,28.85c0.01,52.73,0.01,105.46,0,158.19c0,17.27-11.58,28.81-28.89,28.82 c-10.75,0.01-21.49,0.01-32.24,0c-17.12-0.02-28.73-11.61-28.73-28.72C35.77,232.73,35.78,206.33,35.78,179.92z M62.79,98.97 c0,54.12,0,107.97,0,161.89c12.02,0,23.88,0,35.78,0c0-54.05,0-107.95,0-161.89C86.58,98.97,74.77,98.97,62.79,98.97z"/>
  <path fill="currentColor" d="M251.64,143.76c0,14.58,0.06,29.15-0.03,43.73c-0.04,6.56-1.74,12.69-5.79,17.97c-5.41,7.07-12.95,10.12-21.53,10.33 c-11.82,0.28-23.66,0.2-35.48,0.03c-15.36-0.22-26.92-11.95-27-27.63c-0.15-29.57-0.13-59.14-0.01-88.71 c0.07-15.77,11.88-27.37,27.65-27.47c11.41-0.07,22.82-0.07,34.23,0c16.14,0.09,27.85,11.81,27.92,28.01 C251.7,114.6,251.64,129.18,251.64,143.76z M224.61,188.9c0-30.13,0-59.98,0-89.88c-12.02,0-23.88,0-35.77,0 c0,30.06,0,59.96,0,89.88C200.85,188.9,212.65,188.9,224.61,188.9z"/>
  <path fill="currentColor" d="M143.83,0c42.83,0,85.67-0.01,128.5,0.02c4.44,0,8.74,0.85,11.76,4.44c3.62,4.29,4.41,9.2,2.2,14.45 c-2.34,5.56-7.08,7.38-12.58,7.94c-0.66,0.07-1.33,0.01-2,0.01c-85.33,0-170.67,0.01-256-0.04c-2.21,0-4.48-0.38-6.62-0.94 c-7.07-1.86-9.27-8.15-9.19-12.77C0.02,6.56,4.18,1.81,10.38,0.55c1.7-0.34,3.46-0.52,5.2-0.52C58.33,0,101.08,0,143.83,0z"/>
</svg>
