<svg xmlns="http://www.w3.org/2000/svg" viewBox="0 0 251.95 287.64">
  <path fill="transparent" d="M112.47,161.96c-1.28,0-2.28,0-3.27,0c-15.08,0-30.16-0.06-45.25,0.02c-16.01,0.08-27.78,11.87-27.86,27.84 c-0.06,11.33-0.06,22.67,0.01,34c0.04,5.78,1.47,11.24,4.7,16.08c5.51,8.26,13.66,11.76,23.24,11.88 c15.16,0.2,30.33,0.05,45.5,0.05c0.96,0,1.92,0,3.04,0c0,5.19-0.06,10.02,0.02,14.84c0.05,3.4-0.08,6.87,0.52,10.19 c1.45,8.03,7.22,10.86,12.99,10.78c5.84-0.07,11.4-2.84,12.87-10.94c0.29-1.63,0.44-3.3,0.45-4.95c0.05-6.56,0.02-13.11,0.02-19.92 c1.25,0,2.23,0,3.21,0c15.08,0,30.16,0.05,45.25-0.02c16.21-0.07,27.94-11.78,28.03-27.92c0.06-11.42,0.24-22.84-0.11-34.24 c-0.12-4.06-1-8.36-2.64-12.06c-4.79-10.76-13.9-15.38-25.25-15.56c-15.16-0.24-30.33-0.06-45.5-0.06c-0.96,0-1.91,0-2.79,0 c0-12.27,0-24.14,0-36.14c1.19,0,2.18,0,3.18,0c26.75,0,53.5,0.01,80.24,0c17.3-0.01,28.87-11.57,28.88-28.85 c0.01-10.67,0-21.33,0-32c-0.01-17.49-11.5-29.01-28.96-29.01c-26.83,0-53.66,0-80.49,0c-0.96,0-1.92,0-3.04,0 c0-7.11,0.08-13.85-0.04-20.58c-0.04-2.13-0.38-4.32-0.97-6.37c-1.51-5.31-6.37-8.78-12.23-9c-5.29-0.2-10.74,3.37-12.37,8.45 c-0.73,2.26-1.14,4.7-1.2,7.08c-0.16,6.72-0.05,13.45-0.05,20.44c-1.24,0-2.21,0-3.19,0c-27.08,0-54.16-0.04-81.24,0.01 C11.97,36,0.19,47.75,0.09,63.87C0.03,75.2-0.12,86.54,0.19,97.86c0.11,3.91,0.92,8.02,2.4,11.63 c4.68,11.36,14.01,16.18,25.76,16.27c27.08,0.2,54.16,0.06,81.24,0.06c0.96,0,1.91,0,2.87,0 C112.47,138.04,112.47,149.85,112.47,161.96z"/>
  <path fill="currentColor" d="M112.47,161.96c0-12.11,0-23.92,0-36.14c-0.96,0-1.91,0-2.87,0c-27.08,0-54.16,0.14-81.24-0.06 c-11.75-0.09-21.08-4.92-25.76-16.27c-1.49-3.61-2.3-7.72-2.4-11.63c-0.31-11.32-0.16-22.66-0.1-33.99 C0.19,47.75,11.97,36,28.15,35.97c27.08-0.05,54.16-0.01,81.24-0.01c0.98,0,1.95,0,3.19,0c0-6.99-0.1-13.71,0.05-20.44 c0.06-2.37,0.47-4.82,1.2-7.08c1.64-5.08,7.08-8.65,12.37-8.45c5.86,0.22,10.72,3.7,12.23,9c0.58,2.05,0.93,4.24,0.97,6.37 c0.12,6.74,0.04,13.48,0.04,20.58c1.12,0,2.08,0,3.04,0c26.83,0,53.66,0,80.49,0c17.46,0,28.96,11.52,28.96,29.01 c0,10.67,0.01,21.33,0,32c-0.01,17.28-11.58,28.85-28.88,28.85c-26.75,0.01-53.5,0-80.24,0c-0.99,0-1.99,0-3.18,0 c0,12,0,23.86,0,36.14c0.88,0,1.83,0,2.79,0c15.17,0,30.33-0.18,45.5,0.06c11.35,0.18,20.46,4.81,25.25,15.56 c1.65,3.7,2.52,8,2.64,12.06c0.35,11.41,0.17,22.83,0.11,34.24c-0.09,16.15-11.82,27.85-28.03,27.92 c-15.08,0.07-30.16,0.01-45.25,0.02c-0.98,0-1.96,0-3.21,0c0,6.8,0.03,13.36-0.02,19.92c-0.01,1.65-0.15,3.33-0.45,4.95 c-1.47,8.11-7.03,10.87-12.87,10.94c-5.76,0.07-11.54-2.75-12.99-10.78c-0.6-3.32-0.47-6.79-0.52-10.19 c-0.08-4.82-0.02-9.65-0.02-14.84c-1.11,0-2.08,0-3.04,0c-15.17,0-30.33,0.14-45.5-0.05c-9.59-0.12-17.73-3.62-23.24-11.88 c-3.23-4.84-4.66-10.3-4.7-16.08c-0.07-11.33-0.07-22.67-0.01-34c0.08-15.96,11.85-27.75,27.86-27.84 c15.08-0.08,30.16-0.02,45.25-0.02C110.19,161.96,111.18,161.96,112.47,161.96z M224.97,62.99c-66.13,0-131.98,0-197.87,0 c0,12.03,0,23.89,0,35.77c66.06,0,131.96,0,197.87,0C224.97,86.74,224.97,74.94,224.97,62.99z M188.99,188.97 c-42.11,0-83.96,0-125.91,0c0,12.01,0,23.87,0,35.8c42.04,0,83.94,0,125.91,0C188.99,212.78,188.99,200.98,188.99,188.97z"/>
</svg>
