<svg xmlns="http://www.w3.org/2000/svg" viewBox="0 0 184.43 178.07">
  <path fill="transparent" d="M91.99,178.04c23.92,0,47.84,0,71.76,0c3.33,0,6.67,0.08,10-0.02c5.68-0.17,9.47-2.98,10.4-7.57 c0.95-4.64-1.39-9.25-5.99-11.14c-1.71-0.7-3.72-0.9-5.6-0.9c-53.76-0.05-107.51-0.04-161.27-0.04c-0.5,0-1-0.02-1.5,0.01 c-7.06,0.42-11.1,5.76-9.46,12.49c1.12,4.62,4.85,7.15,10.65,7.16C37.98,178.05,64.98,178.04,91.99,178.04z M91.87,72.29 c26.84,0,53.67,0.01,80.51-0.02c1.65,0,3.35-0.11,4.95-0.51c6.6-1.66,9.18-9.21,5.13-14.68c-2.4-3.24-5.65-4.36-9.57-4.36 c-53.92,0.03-107.84,0.02-161.76,0.02c-0.58,0-1.17-0.03-1.75,0.02c-7.53,0.56-11.6,7.66-8.3,14.48c2,4.15,5.65,5.05,9.79,5.05 C37.87,72.29,64.87,72.29,91.87,72.29z M92.27,0.04c-26.92,0-53.84-0.01-80.77,0.02c-1.49,0-3.02,0.05-4.47,0.37 c-4.89,1.09-7.88,5.84-6.91,10.8c1.13,5.74,4.52,8.36,10.88,8.36c53.93,0,107.85,0,161.78,0c0.5,0,1,0.02,1.5-0.01 c7.76-0.51,12.28-7.21,9.13-13.68c-2.07-4.26-5.64-5.92-10.38-5.9C146.11,0.09,119.19,0.04,92.27,0.04z M92.52,105.58 c-26.93,0-53.85,0-80.78,0.01c-1.41,0-2.84,0.07-4.22,0.32c-5.37,0.95-8.38,6.04-7.31,11.43c1.05,5.31,4.52,7.85,10.76,7.85 c53.93,0,107.87,0,161.8,0c0.75,0,1.5,0.02,2.25-0.05c7.15-0.72,11.36-7.17,8.49-13.4c-1.98-4.32-5.57-6.21-10.46-6.2 C146.21,105.63,119.37,105.58,92.52,105.58z"/>
  <path fill="currentColor" d="M91.99,178.04c-27,0-54.01,0.01-81.01,0c-5.8,0-9.53-2.53-10.65-7.16c-1.64-6.73,2.4-12.07,9.46-12.49 c0.5-0.03,1-0.01,1.5-0.01c53.76,0,107.51-0.01,161.27,0.04c1.88,0,3.89,0.2,5.6,0.9c4.61,1.89,6.94,6.5,5.99,11.14 c-0.94,4.59-4.73,7.4-10.4,7.57c-3.33,0.1-6.67,0.02-10,0.02C139.82,178.04,115.91,178.04,91.99,178.04z"/>
  <path fill="currentColor" d="M91.87,72.29c-27,0-54,0-81.01,0c-4.14,0-7.79-0.91-9.79-5.05c-3.29-6.82,0.77-13.92,8.3-14.48 c0.58-0.04,1.17-0.02,1.75-0.02c53.92,0,107.84,0.01,161.76-0.02c3.92,0,7.17,1.12,9.57,4.36c4.05,5.47,1.46,13.02-5.13,14.68 c-1.59,0.4-3.29,0.51-4.95,0.51C145.55,72.3,118.71,72.29,91.87,72.29z"/>
  <path fill="currentColor" d="M92.27,0.04c26.92,0,53.84,0.05,80.77-0.04c4.75-0.02,8.31,1.64,10.38,5.9c3.15,6.48-1.37,13.17-9.13,13.68 c-0.5,0.03-1,0.01-1.5,0.01c-53.93,0-107.85,0-161.78,0c-6.36,0-9.75-2.62-10.88-8.36c-0.97-4.95,2.01-9.71,6.91-10.8 c1.45-0.32,2.98-0.37,4.47-0.37C38.42,0.04,65.34,0.04,92.27,0.04z"/>
  <path fill="currentColor" d="M92.52,105.58c26.84,0,53.68,0.05,80.53-0.05c4.89-0.02,8.48,1.88,10.46,6.2c2.86,6.24-1.34,12.68-8.49,13.4 c-0.74,0.07-1.5,0.05-2.25,0.05c-53.93,0-107.87,0-161.8,0c-6.23,0-9.71-2.54-10.76-7.85c-1.07-5.39,1.94-10.48,7.31-11.43 c1.38-0.25,2.81-0.32,4.22-0.32C38.67,105.57,65.6,105.58,92.52,105.58z"/>
</svg>
