<svg xmlns="http://www.w3.org/2000/svg" viewBox="0 0 251.69 242.88">
  <path fill="transparent" d="M126.07,72.01c-26.32,0-52.64,0-78.97,0c-11.08,0-22.16-0.06-33.24,0.02C4.74,72.09-1.29,79.15,0.28,87.75 c1.31,7.21,6.32,11.12,14.31,11.12c73.97,0,147.94,0,221.91,0c0.58,0,1.17,0.02,1.75-0.02c9.44-0.56,15.32-8.17,12.91-16.69 c-1.69-5.97-7.47-10.15-14.13-10.15C200.03,72.01,163.05,72.01,126.07,72.01z M126.16,216.01c-36.82,0-73.64,0-110.45,0 c-0.75,0-1.5-0.02-2.25,0.01c-9.23,0.32-15.1,7.81-13.05,16.63c1.53,6.59,6.62,10.23,14.34,10.23c73.89,0,147.77,0,221.66,0 c0.58,0,1.17,0.02,1.75-0.02c9.83-0.52,15.89-8.9,12.7-17.54c-2.14-5.81-7.36-9.3-13.99-9.3 C199.96,216.01,163.06,216.01,126.16,216.01z M125.46,170.88c18.92,0,37.83,0.01,56.75-0.02c1.65,0,3.34-0.17,4.94-0.53 c7.92-1.8,12.11-9.23,9.68-17.01c-1.91-6.11-6.79-9.3-14.33-9.3c-36.25-0.01-72.5,0-108.74,0c-2.08,0-4.17-0.05-6.25,0.01 c-9.14,0.27-14.99,7.55-13.15,16.34c1.37,6.57,6.5,10.5,13.85,10.51C87.29,170.89,106.37,170.88,125.46,170.88z M125.61,0.01 c-19.16,0-38.32-0.03-57.48,0.01c-9.6,0.02-15.73,7.41-13.76,16.46c1.44,6.6,6.6,10.39,14.2,10.39 c37.74,0.01,75.47,0.01,113.21-0.02c1.65,0,3.33-0.19,4.95-0.53c6.41-1.37,10.24-5.74,10.91-12.29c0.49-4.78-2.83-10.62-7.55-12.45 c-2.42-0.94-5.16-1.48-7.76-1.5C163.43-0.04,144.52,0.01,125.61,0.01z"/>
  <path fill="currentColor" d="M126.07,72.01c36.98,0,73.97,0,110.95,0c6.66,0,12.44,4.18,14.13,10.15c2.41,8.52-3.47,16.13-12.91,16.69 c-0.58,0.03-1.17,0.02-1.75,0.02c-73.97,0-147.94,0-221.91,0c-7.99,0-13-3.91-14.31-11.12c-1.57-8.61,4.46-15.66,13.59-15.72 c11.08-0.08,22.16-0.02,33.24-0.02C73.42,72.01,99.74,72.01,126.07,72.01z"/>
  <path fill="currentColor" d="M126.16,216.01c36.9,0,73.8,0,110.7,0c6.63,0,11.85,3.49,13.99,9.3c3.19,8.64-2.88,17.02-12.7,17.54 c-0.58,0.03-1.17,0.02-1.75,0.02c-73.89,0-147.77,0-221.66,0c-7.72,0-12.8-3.64-14.34-10.23c-2.05-8.82,3.82-16.31,13.05-16.63 c0.75-0.03,1.5-0.01,2.25-0.01C52.53,216.01,89.34,216.01,126.16,216.01z"/>
  <path fill="currentColor" d="M125.46,170.88c-19.08,0-38.16,0.01-57.25-0.01c-7.35-0.01-12.48-3.94-13.85-10.51c-1.84-8.79,4.01-16.06,13.15-16.34 c2.08-0.06,4.17-0.01,6.25-0.01c36.25,0,72.5,0,108.74,0c7.53,0,12.42,3.19,14.33,9.3c2.43,7.78-1.77,15.21-9.68,17.01 c-1.61,0.36-3.29,0.53-4.94,0.53C163.29,170.89,144.37,170.88,125.46,170.88z"/>
  <path fill="currentColor" d="M125.61,0.01c18.91,0,37.82-0.06,56.73,0.07c2.6,0.02,5.33,0.56,7.76,1.5c4.72,1.83,8.04,7.67,7.55,12.45 c-0.67,6.55-4.5,10.92-10.91,12.29c-1.61,0.35-3.3,0.53-4.95,0.53c-37.74,0.03-75.47,0.03-113.21,0.02 c-7.61,0-12.76-3.79-14.2-10.39C52.4,7.44,58.53,0.04,68.13,0.02C87.29-0.01,106.45,0.01,125.61,0.01z"/>
</svg>
