<svg xmlns="http://www.w3.org/2000/svg" viewBox="0 0 251.67 242.87">
  <path fill="transparent" d="M126.05,72c-36.82,0-73.64,0-110.45,0c-0.75,0-1.5-0.02-2.25,0.01C4.14,72.37-1.71,79.92,0.39,88.71 c1.58,6.58,6.63,10.15,14.4,10.15c73.8,0,147.6,0,221.41,0c0.67,0,1.33,0.02,2-0.02c9.72-0.57,15.71-8.77,12.68-17.38 c-2.03-5.79-7.38-9.46-13.88-9.46C200.02,72,163.04,72,126.05,72z M125.95,216c-32.4,0-64.81,0-97.21,0c-5,0-10-0.06-14.99,0.01 c-9.2,0.13-15.15,7.28-13.46,16.06c1.32,6.84,6.44,10.79,14.11,10.79c74.14,0.01,148.27,0,222.41,0c0.5,0,1,0.01,1.5-0.02 c11.63-0.73,14.65-10.4,12.8-16.77c-1.73-5.96-7.49-10.07-14.2-10.07C199.92,216,162.93,216,125.95,216z M80.69,26.86 c22.67,0,45.33,0.02,68-0.01c8.09-0.01,12.98-5.02,13-13.2c0.03-8.4-4.84-13.64-12.87-13.64C103.41-0.01,57.99-0.04,12.58,0.1 C9.99,0.11,7.11,1.09,4.88,2.46c-4.69,2.9-6.31,9.94-4.29,16.21c1.69,5.23,5.96,8.17,12.1,8.18 C35.36,26.88,58.03,26.86,80.69,26.86z M80.6,170.86c22.67,0,45.33,0.01,68-0.01c7.35-0.01,11.71-3.71,12.95-10.87 c1.53-8.85-3.84-15.95-12.39-15.96c-45.58-0.06-91.16-0.07-136.74,0.08c-2.58,0.01-5.45,1.06-7.66,2.45 c-4.57,2.88-6.15,9.85-4.2,16.04c1.65,5.23,5.95,8.25,12.04,8.26C35.27,170.88,57.93,170.86,80.6,170.86z"/>
  <path fill="currentColor" d="M126.05,72c36.98,0,73.97,0,110.95,0c6.5,0,11.84,3.67,13.88,9.46c3.02,8.61-2.96,16.81-12.68,17.38 c-0.66,0.04-1.33,0.02-2,0.02c-73.8,0-147.6,0-221.41,0c-7.77,0-12.82-3.57-14.4-10.15c-2.11-8.79,3.74-16.34,12.95-16.71 C14.1,71.98,14.85,72,15.6,72C52.42,72,89.23,72,126.05,72z"/>
  <path fill="currentColor" d="M125.95,216c36.98,0,73.97,0,110.95,0c6.71,0,12.47,4.11,14.2,10.07c1.84,6.37-1.17,16.04-12.8,16.77 c-0.5,0.03-1,0.02-1.5,0.02c-74.14,0-148.27,0-222.41,0c-7.67,0-12.79-3.95-14.11-10.79c-1.69-8.79,4.26-15.93,13.46-16.06 c5-0.07,10-0.01,14.99-0.01C61.14,216,93.55,216,125.95,216z"/>
  <path fill="currentColor" d="M80.69,26.86c-22.67,0-45.33,0.01-68-0.01C6.56,26.85,2.28,23.9,0.6,18.68c-2.03-6.27-0.4-13.32,4.29-16.21 c2.22-1.37,5.11-2.35,7.69-2.36c45.41-0.14,90.83-0.11,136.24-0.09c8.03,0,12.9,5.24,12.87,13.64c-0.03,8.18-4.91,13.19-13,13.2 C126.02,26.88,103.36,26.86,80.69,26.86z"/>
  <path fill="currentColor" d="M80.6,170.86c-22.67,0-45.33,0.02-68-0.01c-6.09-0.01-10.4-3.03-12.04-8.26c-1.95-6.19-0.37-13.16,4.2-16.04 c2.21-1.39,5.08-2.44,7.66-2.45c45.58-0.14,91.16-0.13,136.74-0.08c8.54,0.01,13.92,7.11,12.39,15.96 c-1.24,7.16-5.6,10.86-12.95,10.87C125.93,170.88,103.26,170.86,80.6,170.86z"/>
</svg>
