<svg version="1.1" xmlns="http://www.w3.org/2000/svg" viewBox="0 0 237.46 158.27">
  <path fill="currentColor" d="M118.68,158.27c-30.17,0-60.33-0.01-90.5,0c-9.13,0-16.75-3.28-22.46-10.46c-3.93-4.94-5.62-10.82-5.64-17 c-0.1-34.42-0.1-68.83-0.02-103.25C0.08,11.49,11.93,0.02,28.34,0.02c43.16-0.02,86.33-0.01,129.5-0.01 c17.17,0,34.33-0.03,51.5,0.02c4.53,0.01,9.02,0.59,13.08,2.71c10,5.23,15.01,13.58,15.03,24.85c0.04,24.33,0.01,48.66,0.01,73 c0,9.92,0,19.83,0,29.75c0,11.35-4.91,19.82-14.97,25.16c-4.06,2.16-8.53,2.75-13.06,2.76 C179.17,158.28,148.92,158.27,118.68,158.27z M96.56,108.56c0.8-1.16,1.33-1.9,1.83-2.66c10.19-15.43,20.37-30.86,30.58-46.28 c1.01-1.52,2.07-3.05,3.35-4.34c3.24-3.26,8.43-3.23,11.66,0.04c1.1,1.11,2.07,2.4,2.94,3.71c16.05,24.03,32.07,48.09,48.11,72.13 c1.66,2.49,2.9,5.85,5.25,7.11c2.35,1.26,5.84,0.43,8.83,0.43c6.53,0,8.84-2.34,8.84-8.91c0-33.75,0-67.5,0-101.24 c0-6.71-2.15-8.89-8.77-8.89c-60.16,0-120.32,0-180.49,0.01c-1.16,0-2.34,0.01-3.49,0.16c-2.85,0.39-4.85,2.37-5.26,5.21 c-0.16,1.15-0.17,2.33-0.17,3.49c-0.01,33.75-0.01,67.5,0,101.24c0,1.16-0.18,2.44,0.22,3.47c0.58,1.49,1.3,3.33,2.53,4.08 c3.76,2.3,8.13,1.53,12.21,1.18c1.3-0.11,2.55-2.36,3.59-3.79c10.11-13.85,20.17-27.75,30.27-41.62 c4.96-6.82,11.83-6.76,16.78,0.11c1.36,1.89,2.7,3.8,4.07,5.68C91.76,102.04,94.07,105.17,96.56,108.56z"/>
  <path fill="currentColor" d="M72.22,39.76c7.66,0,13.08,5.41,13.01,13.01c-0.07,7.64-5.5,13.08-13.06,13.05c-7.51-0.03-13.1-5.62-13.11-13.1 C59.05,45.24,64.61,39.76,72.22,39.76z"/>
</svg>
