<svg version="1.1" xmlns="http://www.w3.org/2000/svg" viewBox="0 0 158.31 211.02">
  <path fill="currentColor" d="M158.28,105.66c0,25.83,0.07,51.67-0.03,77.5c-0.05,11.23-4.63,20.15-15.09,24.96c-3.81,1.75-8.32,2.72-12.52,2.75 c-34.33,0.21-68.66,0.19-103,0.08c-11.39-0.04-20.16-5.1-24.98-15.57c-1.69-3.65-2.51-8.03-2.52-12.09 C-0.03,131.37-0.03,79.46,0.06,27.54C0.08,11.47,11.45,0.12,27.5,0.07c34.5-0.1,69-0.09,103.5,0c13.34,0.04,23,7.52,26.35,20.18 c0.69,2.62,0.89,5.43,0.9,8.15C158.31,54.16,158.28,79.91,158.28,105.66z M19.78,105.31c0,26,0,51.99,0,77.99 c0,4.2,1.4,6.82,4.31,7.63c1.34,0.37,2.8,0.38,4.21,0.38c33.91,0.02,67.82,0.02,101.73,0.01c0.83,0,1.67-0.01,2.5-0.09 c3.42-0.32,5.43-2.2,5.95-5.65c0.19-1.23,0.24-2.49,0.24-3.73c0.01-50.91,0.01-101.82,0-152.73c0-1.33-0.07-2.67-0.27-3.98 c-0.49-3.16-2.45-5.06-5.6-5.47c-0.99-0.13-2-0.1-2.99-0.1c-33.74,0-67.49,0-101.23,0c-6.88,0-8.85,1.99-8.85,8.98 C19.78,54.15,19.78,79.73,19.78,105.31z"/>
  <path fill="currentColor" d="M79.1,158.15c-12.58,0-25.17-0.15-37.74,0.07c-6.03,0.11-8.7-3.38-8.1-8.83c1.52-13.77,8.17-23.59,21.31-28.41 c3.53-1.3,7.45-2.06,11.21-2.13c10.24-0.17,20.5-0.19,30.71,0.4c14.57,0.84,27.18,13.74,28.36,28.31c0.07,0.83,0.2,1.65,0.29,2.48 c0.58,5.02-2.01,8.07-7.04,8.09c-10.25,0.05-20.5,0.02-30.75,0.02C84.6,158.15,81.85,158.15,79.1,158.15z"/>
  <path fill="currentColor" d="M105.41,79c0.03,14.15-11.8,26.21-26.05,26.17c-14.54-0.04-26.25-10.92-26.28-26.08c-0.03-15.08,11.59-26.22,26.18-26.21 C94.05,52.88,105.14,64.85,105.41,79z"/>
</svg>
