<svg xmlns="http://www.w3.org/2000/svg" viewBox="0 0 171.34 171.49">
  <path fill="currentColor" d="M98.84,98.86c1.42,0,2.42,0,3.41,0c18,0,36,0.01,54-0.01c1.58,0,3.17-0.08,4.72-0.35 c10.88-1.86,12.53-14.25,8.26-20.26c-3.08-4.34-7.37-5.65-12.37-5.65c-18.33,0.01-36.67,0-55,0c-0.96,0-1.91,0-3.03,0 c0-1.39,0-2.38,0-3.37c0-18,0.01-36.01-0.01-54.01c0-1.58-0.1-3.17-0.35-4.73C96.83,0.04,84.91-2.43,78.07,2.31 c-4.35,3.01-5.51,7.45-5.5,12.44C72.6,33,72.58,51.26,72.58,69.51c0,0.96,0,1.92,0,3.08c-2.72,0-5.04,0-7.36,0 c-16.92,0-33.84,0.01-50.75,0c-5.64,0-10.42,1.69-12.99,7.09c-2.42,5.08-1.91,10.09,1.57,14.55c2.84,3.65,6.9,4.64,11.35,4.64 c18.33-0.02,36.67-0.01,55-0.01c0.97,0,1.95,0,3.18,0c0,1.27,0,2.25,0,3.23c0,18.34,0.06,36.68-0.02,55.01 c-0.06,12.55,10.71,16.69,18.77,13.21c5.7-2.46,7.52-7.38,7.52-13.22c-0.01-18.34,0-36.68,0-55.01 C98.84,101.1,98.84,100.12,98.84,98.86z"/>
  <path fill="currentColor" d="M98.84,98.86c0,1.26,0,2.24,0,3.21c0,18.34,0,36.68,0,55.01c0,5.85-1.82,10.76-7.52,13.22 c-8.06,3.47-18.83-0.67-18.77-13.21c0.08-18.34,0.02-36.68,0.02-55.01c0-0.98,0-1.96,0-3.23c-1.23,0-2.2,0-3.18,0 c-18.33,0-36.67-0.01-55,0.01c-4.44,0.01-8.51-0.99-11.35-4.64c-3.47-4.47-3.99-9.47-1.57-14.55c2.57-5.4,7.35-7.09,12.99-7.09 c16.92,0.01,33.84,0,50.75,0c2.32,0,4.64,0,7.36,0c0-1.16,0-2.12,0-3.08c0-18.25,0.02-36.51-0.01-54.76 c-0.01-4.99,1.15-9.43,5.5-12.44c6.84-4.73,18.76-2.26,20.41,8.17c0.25,1.56,0.35,3.15,0.35,4.73c0.02,18,0.01,36.01,0.01,54.01 c0,0.99,0,1.98,0,3.37c1.12,0,2.08,0,3.03,0c18.33,0,36.67,0.01,55,0c4.99,0,9.29,1.31,12.37,5.65c4.27,6.01,2.62,18.4-8.26,20.26 c-1.55,0.27-3.15,0.35-4.72,0.35c-18,0.02-36,0.01-54,0.01C101.26,98.86,100.26,98.86,98.84,98.86z"/>
</svg>
