<svg xmlns="http://www.w3.org/2000/svg" version="1.1" viewBox="0 0 26 26" width="26" height="26">
  <path fill="currentColor" d="M 24,13 C 24,6.92 19.08,2 13,2 6.92,2 2,6.92 2,13 2,19.08 6.92,24 13,24 19.08,23.99 24,19.07 24,13 Z m 2,0 C 26,20.18 20.18,26 13,26 5.82,26 0,20.18 0,13 0,5.82 5.82,0 13,0 20.18,0.01 25.99,5.82 26,13 Z M 16.99,10.41 14.4,13 l 2.59,2.59 c 0.26,0.25 0.36,0.62 0.27,0.97 -0.09,0.35 -0.36,0.62 -0.71,0.71 C 16.2,17.36 15.83,17.26 15.58,17 L 12.99,14.41 10.4,17 C 10.15,17.28 9.77,17.4 9.41,17.31 9.05,17.22 8.77,16.94 8.68,16.58 8.59,16.22 8.71,15.84 8.99,15.59 L 11.58,13 8.99,10.41 C 8.66,10.01 8.68,9.43 9.05,9.06 9.42,8.69 10,8.67 10.4,9 L 12.99,11.59 15.58,9 c 0.25,-0.26 0.62,-0.36 0.97,-0.27 0.35,0.09 0.62,0.36 0.71,0.71 0.1,0.35 -0.01,0.72 -0.27,0.97 z" />
</svg>
