<svg xmlns="http://www.w3.org/2000/svg" version="1.1" viewBox="0 0 129.53 129.54">
  <path fill="#6e358c" d="M64.78,91.05c-0.18,0-0.36-0.02-0.54-0.03v38.52c0.18,0,0.36,0.01,0.54,0.01c17.34,0,33.07-6.83,44.7-17.92 L82.22,84.38C77.58,88.52,71.48,91.05,64.78,91.05z"/>
  <path fill="#e9463a" d="M91,63.7c0.01,0.36,0.05,0.71,0.05,1.08c0,7.81-3.42,14.79-8.83,19.6l27.25,27.25 c12.36-11.8,20.08-28.42,20.08-46.86c0-0.36-0.02-0.72-0.03-1.08H91z"/>
  <path fill="#feeb3e" d="M64.78,0c-0.18,0-0.36,0.01-0.54,0.01v38.52c0.18,0,0.36-0.03,0.54-0.03c7.53,0,14.3,3.19,19.08,8.27 l27.25-27.25C99.34,7.49,82.94,0,64.78,0z"/>
  <path fill="#f49619" d="M83.86,46.78c4.2,4.46,6.87,10.37,7.14,16.92h38.53c-0.28-17.18-7.26-32.73-18.43-44.16L83.86,46.78z"/>
  <path fill="#37a3dc" d="M38.51,64.78c0-0.36,0.04-0.72,0.05-1.08H0.03C0.02,64.06,0,64.42,0,64.78c0,18.16,7.49,34.57,19.53,46.33 l27.25-27.25C41.7,79.08,38.51,72.31,38.51,64.78z"/>
  <path fill="#4153a0" d="M19.53,111.1c11.56,11.29,27.31,18.29,44.71,18.44V91.02c-6.76-0.14-12.88-2.85-17.46-7.16L19.53,111.1z"/>
  <path fill="#8cc04e" d="M64.24,38.53V0.01C46.02,0.16,29.61,7.85,17.93,20.09l27.26,27.26C49.88,42.07,56.65,38.69,64.24,38.53z"/>
  <path fill="#009687" d="M45.19,47.35L17.93,20.09C7.07,31.47,0.3,46.79,0.03,63.7h38.53C38.82,57.42,41.28,51.73,45.19,47.35z"/>
</svg>
