<svg version="1.1" xmlns="http://www.w3.org/2000/svg" viewBox="0 0 24 24">
  <path fill="currentColor" d="M10.4,18.82l-1.27,2.12l-3.5,2.22l0.32-4.13L10.4,18.82 M18.28,8.12l-1.51,0.1l0.64-1.06l-3.18-1.91l-1.91,3.18l-1.51,0.1 L10.18,9.6l7.4-0.31L18.28,8.12 M15.73,12.36l-1.51,0.1l1.27-2.12l-4.45,0.21l-1.27,2.12l-1.51,0.1l-0.64,1.06l7.4-0.31L15.73,12.36 M13.18,16.6l-1.51,0.1l1.27-2.12L8.5,14.79l-1.27,2.12l-1.51,0.1l-0.64,1.06l7.4-0.31L13.18,16.6 M11.16,1.97l10.6,6.37 c0,0,0.85-3.82-3.39-6.36S11.16,1.97,11.16,1.97z"/>
</svg>
