<svg version="1.1" xmlns="http://www.w3.org/2000/svg" viewBox="0 0 579.95 566.93">
  <path fill="none" d="M368.61,134.13c-33.7-32.61-77.18-51.09-123.92-51.09s-91.31,18.48-123.92,51.09 c-68.48,68.48-68.48,179.36,0,247.84c32.61,32.61,77.18,51.09,123.92,51.09s91.31-18.48,123.92-51.09 C437.09,313.49,437.09,202.61,368.61,134.13z"/>
  <path fill="currentColor" d="M413.43,396.35c70.09-86.25,65.3-212.97-14.38-292.65c-41.31-41.31-95.66-64.13-154.35-64.13 S131.65,62.39,90.34,103.69c-84.79,85.87-84.79,223.92,0,308.71c41.31,41.31,95.66,64.13,154.35,64.13 c50.53,0,98.54-17.56,138.19-49.75l117.26,118.23c4.35,4.35,9.78,6.52,15.22,6.52c5.44,0,10.87-2.17,16.31-6.52 c8.7-8.7,8.7-21.74,0-30.44L413.43,396.35z M120.78,381.97c-68.48-68.48-68.48-179.35,0-247.84 c32.61-32.61,77.18-51.09,123.92-51.09s90.22,18.48,123.92,51.09c68.48,68.48,68.48,179.35,0,247.84 c-32.61,32.61-77.18,51.09-123.92,51.09S153.39,414.58,120.78,381.97z"/>
  <path fill="currentColor" d="M303.31,154.04H178.07c-24.36,0-44.11,19.75-44.11,44.11v125.23c0,24.36,19.75,44.11,44.11,44.11h125.23 c24.36,0,44.11-19.75,44.11-44.11V198.15C347.42,173.79,327.67,154.04,303.31,154.04z M178.07,166.65h125.23 c17.4,0,31.51,14.11,31.51,31.51v76.77l-37.96-38.1c-2.37-2.39-6.21-2.49-8.71-0.23l-65.11,59.24l-30.93-21.05 c-2.34-1.62-5.49-1.45-7.64,0.43l-37.9,32.38V198.15C146.57,180.75,160.67,166.65,178.07,166.65z M303.31,354.89H178.07 c-17.1-0.04-31.04-13.7-31.43-30.79l42.37-36.2l31.06,21.12c2.41,1.64,5.63,1.42,7.79-0.54l64.28-58.57l42.65,42.85v30.6 C334.8,340.77,320.7,354.88,303.31,354.89z M208.6,249.31c15.9,0,28.79-12.89,28.79-28.79c0-15.9-12.89-28.79-28.79-28.79 c-15.9,0-28.79,12.89-28.79,28.79c0,0,0,0.01,0,0.01C179.84,236.42,192.72,249.29,208.6,249.31z M208.6,204.36 c8.94,0,16.18,7.25,16.18,16.18c0,8.94-7.25,16.18-16.18,16.18s-16.18-7.25-16.18-16.18l0,0 C192.42,211.6,199.67,204.36,208.6,204.36z"/>
</svg>
