<svg xmlns="http://www.w3.org/2000/svg" viewBox="0 0 22.58 20.33" style="enable-background:new 0 0 22.58 20.33;" fill="currentColor">
  <path d="M2.1,18.64h6v-6h-6V18.64z M1.6,11.14h7c0.55,0,1,0.45,1,1v7c0,0.55-0.45,1-1,1h-7c-0.55,0-1-0.45-1-1v-7 	C0.6,11.59,1.04,11.14,1.6,11.14z M17.29,18.84c1.77,0,3.2-1.43,3.2-3.2s-1.43-3.2-3.2-3.2c0,0,0,0,0,0c-1.77,0-3.2,1.43-3.2,3.2 	C14.09,17.41,15.52,18.84,17.29,18.84z M3.28,5.43l2,2l3.38-3.37c0.55-0.55,0.55-1.45,0-2s-1.45-0.55-2,0L5.28,3.43L3.92,2.05 	c-0.6-0.5-1.5-0.42-2,0.18c-0.44,0.53-0.44,1.29,0,1.82L3.28,5.43z M1.16,5.43l-0.3-0.31c-1.14-1.14-1.14-2.98,0-4.12 	s2.98-1.14,4.12-0.01l0.3,0.31L5.59,1c1.19-1.09,3.04-1,4.13,0.19c1.02,1.11,1.02,2.82,0,3.93L5.99,8.83 	c-0.39,0.39-1.02,0.39-1.41,0L1.16,5.43z M17.29,20.33c-2.6,0-4.7-2.1-4.7-4.7s2.1-4.7,4.7-4.7c0,0,0,0,0,0c2.6,0,4.7,2.1,4.7,4.7 	C21.99,18.22,19.88,20.33,17.29,20.33z"/>
  <path d="M19.94,9.18h-5.3l-2.65-4.59L14.64,0h5.3l2.65,4.59L19.94,9.18z M15.39,7.88h3.8l1.9-3.29l-1.9-3.29h-3.8l-1.9,3.29 		L15.39,7.88z"/>
</svg>
