<svg xmlns="http://www.w3.org/2000/svg" version="1.1" viewBox="0 0 33.680001 33.679999">
  <circle fill="#6f7881" cx="16.84" cy="16.84" r="16.84" />
  <g transform="translate(-3.6000004,-2.8299999)">
    <path fill="#ffffff" d="m 29.02,17.37 h -1.18 c -0.1,-0.28 -0.21,-0.55 -0.34,-0.81 l 0.84,-0.84 c 0.74,-0.73 0.75,-1.93 0.01,-2.67 l -0.01,-0.01 -0.95,-0.96 c -0.35,-0.36 -0.83,-0.56 -1.33,-0.56 h -0.01 c -0.5,0 -0.99,0.2 -1.34,0.56 l -0.85,0.85 C 23.6,12.81 23.34,12.7 23.08,12.6 v -1.23 c 0,-1.05 -0.85,-1.89 -1.89,-1.89 h -1.36 c -1.05,0 -1.89,0.85 -1.89,1.89 v 1.23 c -0.28,0.1 -0.55,0.21 -0.82,0.34 L 16.2,12.02 c -0.74,-0.73 -1.93,-0.73 -2.68,0 l -0.96,0.96 c -0.74,0.74 -0.74,1.94 -0.01,2.68 0,0 0,0 0.01,0.01 l 0.93,0.93 c -0.12,0.25 -0.23,0.51 -0.32,0.77 h -1.29 c -1.05,0 -1.89,0.85 -1.89,1.89 v 1.36 c 0,1.05 0.85,1.89 1.89,1.89 h 1.29 c 0.09,0.27 0.2,0.53 0.33,0.78 l -0.9,0.9 c -0.73,0.74 -0.73,1.94 0,2.68 l 0.96,0.95 c 0.35,0.36 0.83,0.56 1.33,0.56 h 0.01 c 0.5,0 0.99,-0.2 1.34,-0.56 l 0.89,-0.89 c 0.26,0.13 0.53,0.24 0.81,0.34 v 1.23 c 0,1.05 0.85,1.89 1.89,1.89 h 1.36 c 1.05,0 1.89,-0.85 1.89,-1.89 v -1.23 c 0.26,-0.09 0.52,-0.2 0.77,-0.32 l 0.83,0.82 c 0.35,0.36 0.83,0.56 1.33,0.56 0.5,-0.01 0.98,-0.21 1.35,-0.56 l 0.96,-0.96 c 0.36,-0.36 0.56,-0.84 0.56,-1.35 0,-0.5 -0.2,-0.98 -0.56,-1.33 L 27.5,23.32 c 0.13,-0.27 0.25,-0.54 0.35,-0.83 h 1.18 c 1.05,0 1.89,-0.85 1.89,-1.89 v -1.36 c -0.01,-1.02 -0.86,-1.87 -1.9,-1.87 z m 0.37,3.26 c 0,0.21 -0.17,0.38 -0.38,0.38 h -1.73 c -0.34,0 -0.64,0.23 -0.73,0.56 -0.15,0.54 -0.36,1.06 -0.64,1.54 -0.17,0.3 -0.13,0.67 0.12,0.92 l 1.22,1.22 c 0.07,0.07 0.11,0.16 0.11,0.26 0,0.1 -0.04,0.2 -0.11,0.27 l -0.96,0.96 c -0.07,0.07 -0.17,0.11 -0.27,0.11 v 0 c -0.1,0 -0.2,-0.04 -0.27,-0.12 l -1.23,-1.22 c -0.24,-0.24 -0.61,-0.29 -0.91,-0.12 -0.47,0.27 -0.97,0.47 -1.49,0.61 -0.33,0.09 -0.56,0.39 -0.56,0.73 v 1.79 c 0,0.21 -0.17,0.38 -0.38,0.38 h -1.36 c -0.21,0 -0.38,-0.17 -0.38,-0.38 v -1.79 c 0,-0.34 -0.23,-0.64 -0.56,-0.73 -0.53,-0.14 -1.04,-0.36 -1.52,-0.64 -0.3,-0.17 -0.68,-0.13 -0.92,0.12 l -1.29,1.29 c -0.07,0.07 -0.17,0.11 -0.27,0.11 v 0 c -0.1,0 -0.2,-0.04 -0.26,-0.12 L 13.66,25.8 c -0.15,-0.15 -0.15,-0.39 0,-0.54 l 1.3,-1.29 c 0.24,-0.24 0.29,-0.62 0.12,-0.92 -0.27,-0.47 -0.48,-0.97 -0.62,-1.5 -0.09,-0.33 -0.39,-0.56 -0.73,-0.56 h -1.85 c -0.21,0 -0.38,-0.17 -0.38,-0.38 v -1.36 c 0,-0.21 0.17,-0.38 0.38,-0.38 h 1.85 c 0.34,0 0.64,-0.23 0.73,-0.56 0.14,-0.52 0.35,-1.02 0.61,-1.48 0.17,-0.3 0.12,-0.67 -0.12,-0.91 l -1.33,-1.33 c -0.15,-0.15 -0.15,-0.39 -0.01,-0.54 0,0 0,0 0.01,-0.01 l 0.96,-0.96 c 0.15,-0.15 0.39,-0.15 0.54,0 l 1.32,1.32 c 0.24,0.24 0.62,0.29 0.92,0.12 0.48,-0.28 1,-0.5 1.53,-0.65 0.33,-0.09 0.56,-0.39 0.56,-0.73 v -1.78 c 0,-0.21 0.17,-0.38 0.38,-0.38 h 1.36 c 0.21,0 0.38,0.17 0.38,0.38 v 1.79 c 0,0.34 0.23,0.64 0.56,0.73 0.52,0.14 1.03,0.35 1.5,0.62 0.3,0.17 0.67,0.12 0.91,-0.12 l 1.25,-1.25 c 0.07,-0.07 0.17,-0.11 0.27,-0.11 v 0 c 0.1,0 0.19,0.04 0.26,0.11 l 0.96,0.96 c 0.07,0.07 0.11,0.17 0.11,0.27 0,0.1 -0.04,0.19 -0.11,0.26 l -1.24,1.24 c -0.24,0.24 -0.29,0.61 -0.12,0.91 0.28,0.48 0.49,1 0.64,1.54 0.09,0.33 0.39,0.56 0.73,0.56 h 1.73 c 0.21,0 0.38,0.17 0.38,0.38 z m -8.95,-4.55 c -2.14,0 -3.87,1.73 -3.87,3.87 0,2.14 1.73,3.87 3.87,3.87 2.14,0 3.87,-1.73 3.87,-3.87 v 0 C 24.3,17.82 22.57,16.09 20.44,16.08 Z m 0,6.22 c -1.3,0 -2.35,-1.05 -2.35,-2.35 0,-1.3 1.05,-2.35 2.35,-2.35 1.3,0 2.35,1.05 2.35,2.35 v 0 c 0,1.3 -1.05,2.35 -2.35,2.35 z" />
  </g>
</svg>
