<svg xmlns="http://www.w3.org/2000/svg" viewBox="0 0 287.53 287.43">
  <path fill="transparent" d="M143.81,206.62c35.47-0.27,62.85-28.52,62.85-63.05c0.01-34.68-28.39-62.92-62.89-62.78 c-35,0.15-62.78,28.14-62.83,62.82C80.89,178.28,108.47,206.39,143.81,206.62z M52.16,249.29c3.31,0.32,6.42-1.37,9.04-3.97 c8.23-8.15,16.44-16.31,24.53-24.6c3.33-3.41,5.33-7.5,4.22-12.47c-2.42-10.81-14.44-14.59-22.76-6.81 c-8.57,8.02-16.77,16.45-24.9,24.93c-3.95,4.12-5.4,9.17-2.94,14.73C41.69,246.37,45.61,249.4,52.16,249.29z M236.22,249.6 c1.82-0.48,3.8-0.66,5.45-1.48c8.85-4.38,10.31-15.01,3.06-22.41c-7.81-7.97-15.71-15.87-23.68-23.68 c-1.51-1.48-3.42-2.7-5.35-3.58c-5.44-2.5-12.31-0.45-15.75,4.46c-3.99,5.7-3.45,12.32,1.83,17.73 c8.14,8.35,16.42,16.56,24.71,24.77C229.11,248.01,232.26,249.63,236.22,249.6z M210.22,90.2c4.37-0.05,7.65-1.65,10.32-4.28 c8.26-8.11,16.55-16.2,24.56-24.54c7.15-7.45,5.06-18.19-4-22.16c-5.1-2.24-10.64-1.04-15.28,3.52 c-8.01,7.89-15.94,15.86-23.87,23.83c-0.93,0.94-1.76,2.02-2.44,3.15c-2.73,4.5-2.91,9.07-0.26,13.71 C201.8,87.87,205.67,89.99,210.22,90.2z M77.5,90.2c0.54-0.09,1.63-0.17,2.66-0.46c10.25-2.91,13.47-14.65,5.9-22.66 C78,58.55,69.56,50.37,61.13,42.19c-3.52-3.42-7.87-5.02-12.84-3.59c-10.54,3.03-13.49,14.92-5.59,23.02 c7.9,8.11,15.98,16.05,24.04,24.01C69.55,88.4,72.89,90.16,77.5,90.2z M130.37,31.2c0,5.25-0.04,10.5,0.02,15.75 c0.02,1.65,0.16,3.33,0.47,4.95c1.51,7.75,9.12,12.25,16.66,9.91c6.29-1.94,9.66-6.66,9.69-13.77c0.05-11.17,0.03-22.33-0.01-33.5 c-0.01-1.48-0.24-2.99-0.54-4.45c-1.41-6.75-7.81-11.14-15.03-9.88c-7.17,1.25-11.17,6.26-11.26,13.98 C130.32,19.86,130.37,25.53,130.37,31.2z M31.42,130.27c-5.42,0-10.84-0.1-16.25,0.05c-2.22,0.06-4.5,0.4-6.61,1.05 c-5.68,1.75-9.43,8.18-8.38,13.98c1.38,7.62,6.35,11.74,14.37,11.77c11.17,0.05,22.33,0.03,33.5-0.01c1.32,0,2.66-0.22,3.95-0.5 c7.94-1.73,12.26-9.14,9.89-16.9c-1.84-6.04-6.64-9.37-13.72-9.44C42.58,130.22,37,130.27,31.42,130.27z M256.18,157.13 c5.33,0,10.67,0.04,16-0.02c1.57-0.02,3.17-0.17,4.7-0.48c8.06-1.67,12.41-9.16,9.96-17.03c-1.86-5.98-6.69-9.29-13.81-9.31 c-11.17-0.04-22.33-0.07-33.5,0.04c-2.12,0.02-4.32,0.48-6.34,1.17c-5.54,1.91-9.04,8.23-7.99,13.99 c1.36,7.46,6.33,11.56,14.23,11.64C245.01,157.17,250.6,157.13,256.18,157.13z M130.37,256.18c0,5.25-0.04,10.5,0.02,15.75 c0.02,1.65,0.16,3.33,0.47,4.95c1.5,7.76,9.1,12.26,16.65,9.93c6.29-1.94,9.67-6.66,9.7-13.76c0.05-10.92,0.03-21.83-0.01-32.75 c-0.01-1.65-0.2-3.33-0.5-4.95c-1.24-6.7-7.48-11.42-15.06-10.13c-7.18,1.22-11.18,6.24-11.27,13.97 C130.31,244.85,130.37,250.52,130.37,256.18z"/>
  <path fill="currentColor" d="M143.81,206.62c-35.34-0.24-62.93-28.35-62.87-63.01c0.06-34.68,27.83-62.67,62.83-62.82c34.5-0.14,62.89,28.1,62.89,62.78 C206.66,178.1,179.29,206.36,143.81,206.62z M143.81,179.76c19.53-0.02,35.98-16.45,36.05-35.99c0.06-19.52-16.67-36.22-36.2-36.13 c-19.47,0.09-36.01,16.75-35.92,36.15C107.84,163.36,124.31,179.78,143.81,179.76z"/>
  <path fill="currentColor" d="M52.16,249.29c-6.55,0.1-10.47-2.92-12.8-8.19c-2.47-5.56-1.01-10.61,2.94-14.73c8.12-8.48,16.32-16.91,24.9-24.93 c8.32-7.78,20.34-4,22.76,6.81c1.11,4.97-0.89,9.06-4.22,12.47c-8.09,8.28-16.3,16.45-24.53,24.6 C58.58,247.92,55.46,249.61,52.16,249.29z"/>
  <path fill="currentColor" d="M236.22,249.6c-3.96,0.03-7.11-1.59-9.73-4.2c-8.29-8.2-16.57-16.42-24.71-24.77c-5.27-5.41-5.82-12.03-1.83-17.73 c3.44-4.91,10.31-6.96,15.75-4.46c1.93,0.89,3.84,2.1,5.35,3.58c7.97,7.81,15.87,15.71,23.68,23.68c7.25,7.4,5.79,18.03-3.06,22.41 C240.01,248.94,238.04,249.13,236.22,249.6z"/>
  <path fill="currentColor" d="M210.22,90.2c-4.54-0.21-8.42-2.33-10.96-6.78c-2.65-4.64-2.47-9.21,0.26-13.71c0.69-1.13,1.51-2.21,2.44-3.15 c7.93-7.97,15.86-15.93,23.87-23.83c4.63-4.57,10.17-5.76,15.28-3.52c9.06,3.97,11.14,14.72,4,22.16 c-8.01,8.35-16.3,16.44-24.56,24.54C217.86,88.55,214.59,90.15,210.22,90.2z"/>
  <path fill="currentColor" d="M77.5,90.2c-4.61-0.03-7.96-1.8-10.76-4.57c-8.06-7.96-16.14-15.9-24.04-24.01c-7.89-8.1-4.95-20,5.59-23.02 c4.96-1.43,9.32,0.17,12.84,3.59C69.56,50.37,78,58.55,86.06,67.08c7.57,8.02,4.35,19.76-5.9,22.66 C79.13,90.03,78.04,90.11,77.5,90.2z"/>
  <path fill="currentColor" d="M130.37,31.2c0-5.67-0.05-11.33,0.01-17c0.09-7.73,4.09-12.74,11.26-13.98c7.22-1.26,13.62,3.13,15.03,9.88 c0.3,1.46,0.54,2.96,0.54,4.45c0.04,11.17,0.06,22.33,0.01,33.5c-0.03,7.11-3.41,11.83-9.69,13.77 c-7.55,2.34-15.16-2.16-16.66-9.91c-0.32-1.62-0.46-3.3-0.47-4.95C130.33,41.7,130.37,36.45,130.37,31.2z"/>
  <path fill="currentColor" d="M31.42,130.27c5.58,0,11.17-0.04,16.75,0.01c7.08,0.07,11.88,3.4,13.72,9.44c2.37,7.76-1.95,15.17-9.89,16.9 c-1.29,0.28-2.63,0.49-3.95,0.5c-11.17,0.04-22.33,0.06-33.5,0.01c-8.02-0.03-12.99-4.16-14.37-11.77 c-1.05-5.8,2.7-12.22,8.38-13.98c2.12-0.65,4.4-0.99,6.61-1.05C20.58,130.17,26,130.27,31.42,130.27z"/>
  <path fill="currentColor" d="M256.18,157.13c-5.58,0-11.17,0.04-16.75-0.01c-7.9-0.08-12.87-4.18-14.23-11.64c-1.05-5.76,2.45-12.07,7.99-13.99 c2.01-0.7,4.22-1.15,6.34-1.17c11.17-0.11,22.33-0.08,33.5-0.04c7.12,0.03,11.95,3.33,13.81,9.31c2.45,7.87-1.9,15.36-9.96,17.03 c-1.54,0.32-3.13,0.47-4.7,0.48C266.85,157.17,261.52,157.13,256.18,157.13z"/>
  <path fill="currentColor" d="M130.37,256.18c0-5.67-0.05-11.33,0.01-17c0.09-7.72,4.09-12.75,11.27-13.97c7.58-1.29,13.82,3.43,15.06,10.13 c0.3,1.63,0.49,3.3,0.5,4.95c0.04,10.92,0.06,21.83,0.01,32.75c-0.03,7.11-3.41,11.82-9.7,13.76c-7.55,2.33-15.15-2.17-16.65-9.93 c-0.31-1.62-0.45-3.3-0.47-4.95C130.33,266.69,130.37,261.43,130.37,256.18z"/>
</svg>
